<svg xmlns="http://www.w3.org/2000/svg" width="33.024" height="33.024" viewBox="0 0 33.024 33.024"><defs><style>.a{fill:#64c8da;}</style></defs><path class="a" d="M28.188,4.836A16.512,16.512,0,0,0,4.836,28.188,16.512,16.512,0,0,0,28.188,4.836Zm-19.91,23.7a8.361,8.361,0,0,1,16.468,0,14.545,14.545,0,0,1-16.468,0ZM11.261,14.44a5.25,5.25,0,1,1,5.25,5.25,5.256,5.256,0,0,1-5.25-5.25Zm15.16,12.753a10.312,10.312,0,0,0-6-6.731,7.185,7.185,0,1,0-7.83,0,10.311,10.311,0,0,0-6,6.73,14.577,14.577,0,1,1,19.82,0Zm0,0" transform="translate(0.001)"/></svg>