<svg xmlns="http://www.w3.org/2000/svg" width="24" height="21.094" viewBox="0 0 24 21.094"><defs><style>.a{fill:#2d56b2;}</style></defs><path class="a" d="M.7,49.281H4.219v2.109a.7.7,0,0,0,.7.7H23.3a.7.7,0,0,0,.7-.7V33.109a.7.7,0,0,0-.7-.7H19.781v-.7a.7.7,0,1,0-1.406,0v.7H14.812v-.7a.7.7,0,1,0-1.406,0v.7H9.89v-.7a.7.7,0,1,0-1.406,0v.7H4.922a.7.7,0,0,0-.7.7v4.219c0,5.182-2.154,9.169-3.966,10.71A.7.7,0,0,0,.7,49.281Zm21.891,1.406H5.625V49.281H19.078a.7.7,0,0,0,.45-.163,12.978,12.978,0,0,0,3.065-4.527ZM5.625,33.812H8.484v.7a.7.7,0,1,0,1.406,0v-.7h3.516v.7a.7.7,0,1,0,1.406,0v-.7h3.562v.7a.7.7,0,1,0,1.406,0v-.7h2.812v2.812H5.625Zm-.012,4.218H22.581A14.736,14.736,0,0,1,18.8,47.875H2.3a16.921,16.921,0,0,0,3.31-9.844Z" transform="translate(0 -31)"/></svg>