<svg xmlns="http://www.w3.org/2000/svg" width="25.645" height="20.545" viewBox="0 0 25.645 20.545"><defs><style>.a{fill:#b7b7bb;stroke:#b7b7bb;stroke-width:0.5px;}</style></defs><g transform="translate(0.25 0.25)"><g transform="translate(-65.827 -497.107)"><g transform="translate(65.827 497.107)"><path class="a" d="M129.758,96H112.2v8.78h17.559Zm-.976,7.8H113.175V96.976h15.608Zm0,0" transform="translate(-104.614 -96)"/><path class="a" d="M226.15,139.9a1.951,1.951,0,1,0-1.951-1.951A1.957,1.957,0,0,0,226.15,139.9Zm0-2.927a.976.976,0,1,1-.976.975A.978.978,0,0,1,226.15,136.976Zm0,0" transform="translate(-210.037 -133.467)"/><path class="a" d="M184.2,160h1.463v.976H184.2Zm0,0" transform="translate(-172.61 -155.97)"/><path class="a" d="M304.2,160h1.463v.976H304.2Zm0,0" transform="translate(-285.052 -155.97)"/><path class="a" d="M24.587,266.349a1.832,1.832,0,0,0-1.8-1.8,1.666,1.666,0,0,0-.488.049l-5.9,1.707c-.049,0-.146.049-.2,0l-1.366-.244a1.99,1.99,0,0,0,.78-2.634A1.915,1.915,0,0,0,13.9,262.4H7.759a1.375,1.375,0,0,0-.732.2l-.976.634V262.5H.2v8.292H6.052v-1.219l4.829,2a1.352,1.352,0,0,0,.976.049l11.414-3.561a1.73,1.73,0,0,0,1.317-1.707Zm-19.51,3.463h-3.9v-6.341H3.125V266.4H4.1v-2.927h.976Zm6.536.878a.416.416,0,0,1-.341,0L6.052,268.5v-4.146l1.463-.829a.365.365,0,0,1,.244-.049h6.1a.976.976,0,1,1,0,1.951H10.442v.488l-.1.488,5.609.927a1.4,1.4,0,0,0,.634-.049l5.9-1.707a.833.833,0,0,1,1.024.585.8.8,0,0,1-.537,1.024Zm0,0" transform="translate(-0.199 -251.65)"/></g></g></g></svg>