<svg xmlns="http://www.w3.org/2000/svg" width="17.875" height="22" viewBox="0 0 17.875 22"><defs><style>.a{fill:#808082;}</style></defs><path class="a" d="M64.156,2.75H60.375V2.063A2.065,2.065,0,0,0,58.313,0h-2.75A2.065,2.065,0,0,0,53.5,2.063V2.75H49.719A1.721,1.721,0,0,0,48,4.469V6.875a.688.688,0,0,0,.688.688h.376l.594,12.473A2.06,2.06,0,0,0,51.717,22h10.44a2.06,2.06,0,0,0,2.06-1.964l.594-12.473h.376a.688.688,0,0,0,.688-.687V4.469A1.721,1.721,0,0,0,64.156,2.75Zm-9.281-.687a.688.688,0,0,1,.688-.687h2.75A.688.688,0,0,1,59,2.063V2.75H54.875Zm-5.5,2.406a.344.344,0,0,1,.344-.344H64.156a.344.344,0,0,1,.344.344V6.188H49.375Zm13.469,15.5a.687.687,0,0,1-.687.655H51.717a.687.687,0,0,1-.687-.655L50.44,7.563h13Z" transform="translate(-48)"/><path class="a" d="M240.688,218.313a.688.688,0,0,0,.688-.687v-8.937a.688.688,0,0,0-1.375,0v8.938A.688.688,0,0,0,240.688,218.313Z" transform="translate(-231.75 -199.063)"/><path class="a" d="M320.688,218.313a.688.688,0,0,0,.688-.687v-8.937a.688.688,0,0,0-1.375,0v8.938A.688.688,0,0,0,320.688,218.313Z" transform="translate(-308.313 -199.063)"/><path class="a" d="M160.688,218.313a.688.688,0,0,0,.688-.687v-8.937a.688.688,0,0,0-1.375,0v8.938A.688.688,0,0,0,160.688,218.313Z" transform="translate(-155.188 -199.063)"/></svg>