<svg xmlns="http://www.w3.org/2000/svg" width="21.735" height="21.534" viewBox="0 0 21.735 21.534"><defs><style>.a{fill:#2d56b2;stroke:#2d56b2;}</style></defs><g transform="translate(0.5 0.5)"><path class="a" d="M16.867,42.937a.733.733,0,0,0-.733.733V51a.733.733,0,0,1-.733.733H2.2A.733.733,0,0,1,1.467,51V36.337A.733.733,0,0,1,2.2,35.6H11a.733.733,0,1,0,0-1.467H2.2a2.2,2.2,0,0,0-2.2,2.2V51a2.2,2.2,0,0,0,2.2,2.2H15.4A2.2,2.2,0,0,0,17.6,51V43.67A.733.733,0,0,0,16.867,42.937Z" transform="translate(0 -32.67)"/><path class="a" d="M117.72.826a2.807,2.807,0,0,0-3.971,0l-9.66,9.659a.741.741,0,0,0-.177.287l-1.467,4.4a.733.733,0,0,0,.7.965.745.745,0,0,0,.232-.037l4.4-1.467a.733.733,0,0,0,.287-.177L117.72,4.8A2.807,2.807,0,0,0,117.72.826ZM116.683,3.76l-9.533,9.533-2.848.951.948-2.845,9.537-9.533a1.34,1.34,0,1,1,1.9,1.893Z" transform="translate(-98.008 -0.004)"/></g></svg>