<svg xmlns="http://www.w3.org/2000/svg" width="23.966" height="23.966" viewBox="0 0 23.966 23.966"><defs><style>.a{fill:#b7b7bb;stroke:#b7b7bb;stroke-width:0.5px;}</style></defs><g transform="translate(0.25 0.25)"><path class="a" d="M22.484,10.56H21.119V8.108A1.07,1.07,0,0,0,20.051,7.04h-.5V0H3.911V.782H2.738v.782H1.564V4.3h-.5A1.07,1.07,0,0,0,0,5.371V22.456H0a1,1,0,0,0,1,1.009H18.508a.992.992,0,0,0,.958-.709l4-10.966v-.069A1.048,1.048,0,0,0,22.484,10.56ZM20.051,7.822a.286.286,0,0,1,.286.286V10.56h-.782V7.822ZM18.773.782V10.56H4.979a1,1,0,0,0-.264.038l-.022,0V.782ZM3.911,1.564V11.571l-.025.068-.366,1V1.564Zm-1.564.782h.391V14.787l-.391,1.072V2.347ZM.782,5.371a.287.287,0,0,1,.286-.286h.5V17.968L.782,20.1Zm17.939,17.15a.22.22,0,0,1-.213.163H1A.216.216,0,0,1,.828,22.6a.212.212,0,0,1-.048-.16l.785-2.151h0L2.738,17.07h0l1.173-3.217h0l.756-2.073.027-.072h0l.063-.172.01-.032a.221.221,0,0,1,.213-.163H22.484c.148,0,.187.214.2.32Z"/><path class="a" d="M17.391,15.782h9.386a.391.391,0,0,0,0-.782H17.391a.391.391,0,1,0,0,.782Z" transform="translate(-10.351 -9.134)"/><path class="a" d="M17.391,8.782H21.3A.391.391,0,1,0,21.3,8H17.391a.391.391,0,1,0,0,.782Z" transform="translate(-10.351 -4.871)"/><path class="a" d="M17.391,22.782h9.386a.391.391,0,1,0,0-.782H17.391a.391.391,0,1,0,0,.782Z" transform="translate(-10.351 -13.396)"/></g></svg>