<svg xmlns="http://www.w3.org/2000/svg" width="18.429" height="21.487" viewBox="0 0 18.429 21.487"><defs><style>.a{fill:#b7b7bb;stroke:#b7b7bb;stroke-width:0.5px;}</style></defs><g transform="translate(0.25 0.25)"><path class="a" d="M15.8,1.491h-.834V.476a.476.476,0,1,0-.953,0V1.5H4.4V.476a.476.476,0,0,0-.953,0V1.5h-.81A2.383,2.383,0,0,0,.25,3.878V18.605a2.383,2.383,0,0,0,2.382,2.382H15.8a2.383,2.383,0,0,0,2.382-2.382V3.874A2.382,2.382,0,0,0,15.8,1.491ZM17.23,18.6A1.433,1.433,0,0,1,15.8,20.03H2.632A1.433,1.433,0,0,1,1.2,18.6V3.874A1.433,1.433,0,0,1,2.632,2.444h.81v.738a.476.476,0,0,0,.953,0V2.444h9.619v.738a.476.476,0,1,0,.953,0V2.444H15.8A1.433,1.433,0,0,1,17.23,3.874Zm0,0" transform="translate(-0.25)"/><path class="a" d="M59.907,209.274l-1.758,1.677-.81-.81a.475.475,0,0,0-.672.672l1.139,1.139a.468.468,0,0,0,.338.138.462.462,0,0,0,.329-.133l2.092-2a.473.473,0,1,0-.658-.681Zm0,0" transform="translate(-53.847 -199.174)"/><path class="a" d="M191.4,230.2h-5.479a.476.476,0,1,0,0,.953H191.4a.476.476,0,1,0,0-.953Zm0,0" transform="translate(-176.626 -219.231)"/><path class="a" d="M59.907,109.274l-1.758,1.677-.81-.81a.475.475,0,1,0-.672.672l1.139,1.139a.467.467,0,0,0,.338.138.461.461,0,0,0,.329-.133l2.092-2a.473.473,0,1,0-.658-.681Zm0,0" transform="translate(-53.847 -103.938)"/><path class="a" d="M191.4,130.2h-5.479a.476.476,0,1,0,0,.953H191.4a.476.476,0,1,0,0-.953Zm0,0" transform="translate(-176.626 -123.996)"/><path class="a" d="M59.907,309.274l-1.758,1.677-.81-.81a.475.475,0,1,0-.672.672l1.139,1.139a.468.468,0,0,0,.338.138.461.461,0,0,0,.329-.133l2.092-2a.473.473,0,1,0-.658-.681Zm0,0" transform="translate(-53.847 -294.409)"/><path class="a" d="M191.4,330.2h-5.479a.476.476,0,0,0,0,.953H191.4a.476.476,0,0,0,0-.953Zm0,0" transform="translate(-176.626 -314.467)"/></g></svg>