<svg xmlns="http://www.w3.org/2000/svg" width="24.9" height="23.863" viewBox="0 0 24.9 23.863"><defs><style>.a{fill:#b7b7bb;}</style></defs><path class="a" d="M90.52,10.375a5.188,5.188,0,1,1,5.188-5.187A5.193,5.193,0,0,1,90.52,10.375Zm0-8.819a3.631,3.631,0,1,0,3.631,3.631A3.635,3.635,0,0,0,90.52,1.556Zm0,0" transform="translate(-81.182)"/><path class="a" d="M327.522,348.595h-5.706A1.818,1.818,0,0,1,320,346.779v-3.631a1.818,1.818,0,0,1,1.816-1.816h5.706a1.818,1.818,0,0,1,1.816,1.816v3.631A1.818,1.818,0,0,1,327.522,348.595Zm-5.706-5.706a.26.26,0,0,0-.259.26v3.631a.26.26,0,0,0,.259.259h5.706a.26.26,0,0,0,.259-.259v-3.631a.26.26,0,0,0-.259-.26Zm0,0" transform="translate(-304.438 -324.731)"/><path class="a" d="M367.077,261.706h-3.631a.778.778,0,0,1-.778-.778v-2.334a2.594,2.594,0,1,1,5.187,0v2.334A.778.778,0,0,1,367.077,261.706Zm-2.853-1.556H366.3v-1.556a1.037,1.037,0,1,0-2.075,0Zm0,0" transform="translate(-345.03 -243.55)"/><path class="a" d="M12.969,265.338H.778A.778.778,0,0,1,0,264.56v-3.631A4.934,4.934,0,0,1,4.928,256h9.078a4.914,4.914,0,0,1,2.468.664.778.778,0,1,1-.783,1.345,3.362,3.362,0,0,0-1.685-.452H4.928a3.376,3.376,0,0,0-3.372,3.372v2.853H12.969a.778.778,0,0,1,0,1.556Zm0,0" transform="translate(0 -243.55)"/></svg>