<svg xmlns="http://www.w3.org/2000/svg" width="122.727" height="131.74" viewBox="0 0 122.727 131.74"><defs><style>.a{fill:#6eb329;}.b{fill:#3a312a;}.c{fill:#87796f;}.d{fill:#6a5c52;}.e{fill:#f5e1c5;}.f{fill:#02a9f4;}.g{fill:#f16c7a;}.h{fill:#f3dec3;}.i{fill:#d4d752;}</style></defs><g transform="translate(96.079 6.527)"><path class="a" d="M50.02,26.376c.569,6.753,7.605,7.819,7.605,7.819-6.041.284-7.547,8.21-7.547,8.21-.129-5.651-7.779-8.293-7.779-8.293,5.731-.343,7.721-7.735,7.721-7.735Z" transform="translate(-42.299 -26.376)"/></g><g transform="translate(95.203 5.651)"><path class="b" d="M41.623,32.613c5.024-.3,6.909-7.021,6.927-7.089a.876.876,0,0,1,1.718.155c.5,5.965,6.607,6.986,6.864,7.026a.876.876,0,0,1-.09,1.741c-5.272.248-6.715,7.427-6.729,7.5a.876.876,0,0,1-.86.711c-.025,0-.049,0-.074,0a.876.876,0,0,1-.8-.852c-.114-4.969-7.119-7.461-7.19-7.486a.876.876,0,0,1,.235-1.7Zm7.922,6.041a10.208,10.208,0,0,1,4.43-5.183,9.4,9.4,0,0,1-4.79-4.831,10.692,10.692,0,0,1-4.867,5.093,12.451,12.451,0,0,1,5.226,4.921Z" transform="translate(-40.799 -24.877)"/></g><g transform="translate(111.01 16.442)"><path class="a" d="M29.873,43.356c.4,4.776,5.379,5.531,5.379,5.531-4.273.2-5.338,5.807-5.338,5.807-.091-4-5.5-5.866-5.5-5.866C28.466,48.585,29.873,43.356,29.873,43.356Z" transform="translate(-24.412 -43.356)"/></g><g transform="translate(110.134 15.566)"><path class="b" d="M23.737,47.329c3.367-.2,4.655-4.78,4.668-4.826a.876.876,0,0,1,1.718.155c.338,4.012,4.465,4.711,4.638,4.738a.876.876,0,0,1-.091,1.741c-3.524.166-4.51,5.048-4.519,5.1a.876.876,0,0,1-.86.712c-.024,0-.048,0-.073,0a.876.876,0,0,1-.8-.853c-.076-3.334-4.865-5.042-4.912-5.058a.876.876,0,0,1,.235-1.7Zm5.6,3.968a7.484,7.484,0,0,1,2.6-3.083,6.979,6.979,0,0,1-2.844-2.871,7.819,7.819,0,0,1-2.885,3.05A9.163,9.163,0,0,1,29.333,51.3Z" transform="translate(-22.912 -41.856)"/></g><g transform="translate(111.01 0.877)"><path class="a" d="M29.873,16.7c.4,4.776,5.379,5.531,5.379,5.531-4.273.2-5.338,5.807-5.338,5.807-.091-4-5.5-5.866-5.5-5.866,4.054-.243,5.461-5.472,5.461-5.472Z" transform="translate(-24.412 -16.699)"/></g><g transform="translate(110.134)"><path class="b" d="M23.738,20.671c3.351-.2,4.644-4.738,4.667-4.825A.876.876,0,0,1,30.123,16c.338,4.012,4.465,4.711,4.638,4.738a.876.876,0,0,1-.09,1.741c-3.525.166-4.51,5.048-4.52,5.1a.876.876,0,0,1-.86.712c-.025,0-.048,0-.073,0a.876.876,0,0,1-.8-.853C28.339,24.1,23.55,22.39,23.5,22.373a.876.876,0,0,1,.235-1.7Zm5.6,3.968a7.484,7.484,0,0,1,2.6-3.083,6.984,6.984,0,0,1-2.844-2.871A7.816,7.816,0,0,1,26.2,21.735a9.152,9.152,0,0,1,3.132,2.9Z" transform="translate(-22.913 -15.198)"/></g><g transform="translate(85.941 108.09)"><g transform="translate(0)"><ellipse class="c" cx="11.387" cy="11.387" rx="11.387" ry="11.387"/></g></g><g transform="translate(85.065 107.214)"><path class="b" d="M57.67,198.8a12.263,12.263,0,1,1-12.263,12.263A12.276,12.276,0,0,1,57.67,198.8Zm0,22.774a10.511,10.511,0,1,0-10.511-10.511A10.523,10.523,0,0,0,57.67,221.575Z" transform="translate(-45.407 -198.801)"/></g><g transform="translate(86.817 108.966)"><path class="d" d="M69.418,201.8a10.358,10.358,0,0,1,4.38.964,10.5,10.5,0,0,0,0,19.095,10.358,10.358,0,0,1-4.38.964,10.511,10.511,0,1,1,0-21.022Z" transform="translate(-58.907 -201.801)"/></g><g transform="translate(10.769 57.051)"><path class="e" d="M177.443,150.189l-8.129-25.652c-.753-2.377-2.048-4.978-.808-7.393a8.28,8.28,0,0,1,5.686-4.112,6.076,6.076,0,0,1,6.7,2.957c.65,1.249,1.417,5.227,1.707,6.6.481,2.284,3.86,18.555,5.717,27.5A7.2,7.2,0,0,1,184,158.223l-29.147,11.95-3.1-7.194Z" transform="translate(-151.746 -112.897)"/></g><g transform="translate(9.892 56.172)"><path class="b" d="M150.735,161.569l25.025-12.457-7.9-24.937c-.117-.368-.247-.742-.378-1.119-.745-2.142-1.589-4.571-.374-6.938a9.159,9.159,0,0,1,6.294-4.571,6.931,6.931,0,0,1,7.653,3.412,32.76,32.76,0,0,1,1.668,6.256l.119.573c.35,1.663,2.221,10.659,5.718,27.5a8.083,8.083,0,0,1-4.849,9.117l-29.148,11.95a.864.864,0,0,1-.332.066.877.877,0,0,1-.8-.529l-3.1-7.193a.879.879,0,0,1,.415-1.132Zm3.958,6.841,28.352-11.624a6.331,6.331,0,0,0,3.8-7.14c-3.5-16.841-5.367-25.836-5.717-27.5l-.12-.581a36.585,36.585,0,0,0-1.507-5.8,5.2,5.2,0,0,0-5.755-2.5,7.369,7.369,0,0,0-5.079,3.653c-.874,1.7-.221,3.577.47,5.563.137.393.272.782.394,1.166l8.129,25.652a.875.875,0,0,1-.445,1.048l-24.954,12.421Z" transform="translate(-150.248 -111.392)"/></g><g transform="translate(27.013 57.051)"><path class="f" d="M153.238,117.146a8.256,8.256,0,0,1,5.687-4.112,6.058,6.058,0,0,1,6.7,2.958c.649,1.248,1.415,5.226,1.71,6.6.445,2.121,3.4,16.329,5.3,25.5l-10.478,2.032c-.461-1.443-7.29-23.01-8.114-25.59-.749-2.378-2.048-4.974-.8-7.39Z" transform="translate(-152.721 -112.897)"/></g><g transform="translate(26.136 56.172)"><path class="b" d="M151.836,116.118a9.132,9.132,0,0,1,6.293-4.57,6.911,6.911,0,0,1,7.651,3.412,32.469,32.469,0,0,1,1.644,6.13l.146.7c.445,2.121,3.4,16.331,5.3,25.5a.876.876,0,0,1-.691,1.038L161.7,150.359a.863.863,0,0,1-.168.016.876.876,0,0,1-.834-.61c-.186-.582-1.408-4.439-2.854-9-2.139-6.75-4.768-15.049-5.261-16.59-.117-.373-.249-.752-.382-1.133C151.46,120.9,150.619,118.481,151.836,116.118Zm2.02,6.346c.138.4.275.792.4,1.178.492,1.539,3.122,9.84,5.262,16.592,1.151,3.632,2.159,6.816,2.617,8.257l8.842-1.714c-1.9-9.174-4.686-22.576-5.116-24.627l-.148-.7a35.559,35.559,0,0,0-1.484-5.679,5.176,5.176,0,0,0-5.753-2.5,7.349,7.349,0,0,0-5.078,3.653h0C152.52,118.616,153.169,120.485,153.856,122.464Z" transform="translate(-151.221 -111.391)"/></g><g transform="translate(0.871 105.808)"><path class="g" d="M206.17,199.872a3.084,3.084,0,0,1,.747-.472l.781-.255,6.485-2.123,1.709-.56a.763.763,0,0,1,1.039.919,4.256,4.256,0,0,0,.069,3.454,5.189,5.189,0,0,0,2.714,2.724.764.764,0,0,1,0,1.393l-.009,0a3.008,3.008,0,0,0-1.338,1.171,3.126,3.126,0,0,0-.18.342,3.005,3.005,0,0,0,0,2.464l1.838,4.114a6.181,6.181,0,0,1,.36,1.048,5.985,5.985,0,0,1,.157.985,6.131,6.131,0,0,1-3.608,6.05,3.385,3.385,0,0,1-4.474-1.711l-7.11-15.913a3.1,3.1,0,0,1,.822-3.633Z" transform="translate(-205.076 -196.393)"/></g><g transform="translate(0 104.931)"><path class="b" d="M204.97,198.581a3.976,3.976,0,0,1,.959-.606.886.886,0,0,1,.085-.033l8.94-2.927A1.639,1.639,0,0,1,217.143,197a3.419,3.419,0,0,0,.028,2.851,4.3,4.3,0,0,0,2.287,2.288,1.638,1.638,0,0,1,.953,1.511,1.62,1.62,0,0,1-.977,1.477,2.13,2.13,0,0,0-.947.827,2.3,2.3,0,0,0-.13.246,2.132,2.132,0,0,0-.137,1.338,2.068,2.068,0,0,0,.135.408l1.838,4.113a7.083,7.083,0,0,1,.411,1.2,6.9,6.9,0,0,1,.18,1.128,7.019,7.019,0,0,1-.444,3.027,6.944,6.944,0,0,1-3.681,3.89h0a4.235,4.235,0,0,1-1.429.36c-.1.008-.2.011-.306.011a4.279,4.279,0,0,1-3.9-2.525l-7.11-15.912a4,4,0,0,1,1.052-4.658Zm.547,3.943,7.11,15.912a2.509,2.509,0,0,0,3.317,1.268,5.2,5.2,0,0,0,2.759-2.916,5.266,5.266,0,0,0,.333-2.269,5.189,5.189,0,0,0-.134-.841,5.332,5.332,0,0,0-.309-.9l-1.838-4.114a3.846,3.846,0,0,1-.246-.743,3.9,3.9,0,0,1,.249-2.436,3.986,3.986,0,0,1,.234-.444,3.879,3.879,0,0,1,1.521-1.412,6.035,6.035,0,0,1-2.943-3.063,4.983,4.983,0,0,1-.168-3.855l-8.8,2.88a2.235,2.235,0,0,0-1.089,2.932Z" transform="translate(-203.574 -194.892)"/></g><g transform="translate(9.781 115.187)"><path class="b" d="M208.832,213.457a1.127,1.127,0,0,1,1.245-1l3.131.347a3.121,3.121,0,0,0-.18.342,3,3,0,0,0-.194,1.887l-3.006-.334a1.127,1.127,0,0,1-1-1.246Z" transform="translate(-208.825 -212.454)"/></g><g transform="translate(11.295 118.577)"><path class="b" d="M207,219.264a1.126,1.126,0,0,1,1.245-1l1.619.18,1.066,2.387L208,220.509A1.128,1.128,0,0,1,207,219.264Z" transform="translate(-206.994 -218.261)"/></g><g transform="translate(25.959 35.322)"><path class="f" d="M142.478,101.713l2.047-6.252,2.653-8.1,1.493-4.559a10.321,10.321,0,1,1,19.617,6.425l-6.523,19.9c-3.672-2.1-6.553-3.751-7.38-4.214-1.226-.688-4.714-2.75-6.086-3.091a6.071,6.071,0,0,0-6.654,3.062,8.971,8.971,0,0,0-.655,1.42c.582-1.926,1.355-4.178,1.488-4.59Z" transform="translate(-140.989 -75.687)"/></g><g transform="translate(25.084 34.449)"><path class="b" d="M139.523,105.427c.458-1.515,1.021-3.2,1.324-4.1.081-.241.14-.418.17-.51l2.047-6.252a.876.876,0,1,1,1.664.545l-2,6.112a6.565,6.565,0,0,1,5.154-.874,32.423,32.423,0,0,1,5.7,2.833l.6.343c.5.279,1.733.986,3.435,1.959l3.018,1.726,6.189-18.881a9.445,9.445,0,1,0-17.953-5.879l-1.493,4.559a.876.876,0,1,1-1.664-.545l1.493-4.56a11.2,11.2,0,1,1,21.282,6.971l-6.523,19.9a.876.876,0,0,1-1.267.488l-3.952-2.259c-1.7-.971-2.927-1.675-3.423-1.952l-.615-.35a35.462,35.462,0,0,0-5.256-2.655,5.187,5.187,0,0,0-5.68,2.648,8.077,8.077,0,0,0-.591,1.28.876.876,0,0,1-1.662-.55Z" transform="translate(-139.485 -74.191)"/></g><g transform="translate(38.971 45.981)"><path class="h" d="M102.794,96.116a3.7,3.7,0,0,1,4.893-1.845l29.9,13.526a3.7,3.7,0,1,1-3.048,6.739l-29.9-13.526a3.7,3.7,0,0,1-1.845-4.893Z" transform="translate(-102.464 -93.941)"/></g><g transform="translate(38.097 45.104)"><path class="b" d="M101.373,95.129a4.574,4.574,0,0,1,6.053-2.283l29.9,13.526a4.574,4.574,0,1,1-3.769,8.335l-29.9-13.526a4.578,4.578,0,0,1-2.283-6.052Zm3,4.457,29.9,13.526a2.822,2.822,0,1,0,2.326-5.143L106.7,94.443a2.8,2.8,0,0,0-1.159-.251,2.822,2.822,0,0,0-1.167,5.393Z" transform="translate(-100.967 -92.438)"/></g><g transform="translate(38.971 45.981)"><path class="f" d="M115.334,96.116a3.7,3.7,0,0,1,4.893-1.845l24.755,11.2-3.048,6.739-24.755-11.2A3.7,3.7,0,0,1,115.334,96.116Z" transform="translate(-115.005 -93.941)"/></g><g transform="translate(38.094 45.104)"><path class="b" d="M113.912,95.13a4.574,4.574,0,0,1,6.053-2.283l24.756,11.2a.875.875,0,0,1,.437,1.159l-3.048,6.739a.875.875,0,0,1-1.159.437l-24.755-11.2a4.573,4.573,0,0,1-2.283-6.051Zm1.526,2.881a2.8,2.8,0,0,0,1.477,1.575l23.957,10.836,2.326-5.143L119.242,94.443a2.822,2.822,0,0,0-3.8,3.567Z" transform="translate(-113.503 -92.438)"/></g><g transform="translate(37.617 1.88)"><g transform="translate(0 0)"><ellipse class="h" cx="11.601" cy="16.358" rx="11.601" ry="16.358" transform="translate(21.171 39.345) rotate(-155.845)"/></g></g><g transform="translate(41.459 4.975)"><path class="b" d="M118.21,35.159a20.993,20.993,0,0,1,8.2-9.561c3.517-2.07,7.159-2.446,10.253-1.056,6.279,2.819,8.221,12.169,4.328,20.843a20.993,20.993,0,0,1-8.2,9.561,12.584,12.584,0,0,1-6.353,1.88,9.463,9.463,0,0,1-3.9-.825c-6.279-2.819-8.221-12.169-4.328-20.842ZM123.255,54.4c2.562,1.152,5.633.806,8.648-.967a19.228,19.228,0,0,0,7.485-8.769c3.5-7.792,1.952-16.1-3.446-18.527-2.562-1.151-5.633-.806-8.648.967a19.234,19.234,0,0,0-7.485,8.769C116.311,43.669,117.857,51.98,123.255,54.4Z" transform="translate(-116.202 -23.717)"/></g><g transform="translate(38.628 2.253)"><path class="c" d="M119.757,30.529c4-8.891,12.777-13.609,19.624-10.531,4.563,2.047,7.1,7.046,7.111,12.789-5.978,1.348-12.157.825-18.216-.507a20.48,20.48,0,0,0-2.614,4.328c-2.633,5.869-2.172,12.362.578,16.067a10.175,10.175,0,0,1-1.311-.484c-6.844-3.072-9.16-12.773-5.172-21.661Z" transform="translate(-117.804 -19.056)"/></g><g transform="translate(37.748 1.371)"><path class="b" d="M118.338,29.541a21.376,21.376,0,0,1,9.128-10.167,13.005,13.005,0,0,1,11.654-.8c4.692,2.105,7.615,7.312,7.627,13.587a.875.875,0,0,1-.683.856c-5.274,1.188-11.184,1.062-18.05-.389a19.679,19.679,0,0,0-2.172,3.713c-2.394,5.334-2.2,11.58.482,15.186a.876.876,0,0,1-.946,1.364,11.126,11.126,0,0,1-1.427-.526,13.016,13.016,0,0,1-7.142-9.245,21.358,21.358,0,0,1,1.529-13.573Zm.175,13.168a11.654,11.654,0,0,0,5.053,7.472c-1.74-4.11-1.539-9.62.677-14.56a21.346,21.346,0,0,1,2.725-4.513.876.876,0,0,1,.688-.334.859.859,0,0,1,.188.02c6.536,1.437,12.152,1.653,17.136.657-.214-5.256-2.7-9.542-6.579-11.284a11.3,11.3,0,0,0-10.107.75,19.618,19.618,0,0,0-8.359,9.341A19.6,19.6,0,0,0,118.513,42.709Z" transform="translate(-116.305 -17.545)"/></g><g transform="translate(55.853 30.195)"><path class="b" d="M131.676,66.907a.886.886,0,0,1,.893.858,3.025,3.025,0,0,0,1.661,2.82.876.876,0,0,1-.851,1.531,4.747,4.747,0,0,1-2.561-4.317.875.875,0,0,1,.858-.893Z" transform="translate(-130.818 -66.907)"/></g><g transform="translate(55.649 19.115)"><path class="b" d="M126.4,47.933h.02a.876.876,0,0,1,.875.856,2.154,2.154,0,0,0,1.427,2.11,2.254,2.254,0,0,0,2.469-.285.876.876,0,0,1,1.245,1.233,3.809,3.809,0,0,1-2.666,1.036,4.29,4.29,0,0,1-1.766-.387,3.907,3.907,0,0,1-2.46-3.669A.876.876,0,0,1,126.4,47.933Z" transform="translate(-125.545 -47.933)"/></g><g transform="translate(39.868 0.919)"><path class="i" d="M97.878,27.3c1.262-7.076,8.651-11.677,16.5-10.276,6.593,1.176,11.4,6.211,12.03,11.984l8.286,1.478a2.668,2.668,0,0,1,2.158,3.1l-.071.4a2.668,2.668,0,0,1-3.1,2.158l-8.116-1.448-27.8-4.959a8.261,8.261,0,0,1,.106-2.432Z" transform="translate(-97.725 -16.771)"/></g><g transform="translate(38.991 0.041)"><path class="b" d="M96.392,26.52a13.184,13.184,0,0,1,6.179-8.907,16.063,16.063,0,0,1,11.34-2.078c6.58,1.174,11.692,6.1,12.658,12.1L134.226,29a3.543,3.543,0,0,1,2.867,4.112l-.071.4a3.546,3.546,0,0,1-3.481,2.923,3.6,3.6,0,0,1-.63-.056L96.994,29.967a.876.876,0,0,1-.716-.759,9.033,9.033,0,0,1,.114-2.689Zm36.826,8.13A1.793,1.793,0,0,0,135.3,33.2l.071-.4a1.792,1.792,0,0,0-1.45-2.079l-8.286-1.478a.876.876,0,0,1-.717-.767c-.6-5.524-5.256-10.137-11.313-11.217a15.259,15.259,0,0,0-2.68-.239A14.008,14.008,0,0,0,103.5,19.1a11.452,11.452,0,0,0-5.381,7.727,8.352,8.352,0,0,0-.139,1.536Z" transform="translate(-96.224 -15.269)"/></g><g transform="translate(25.447 61.288)"><path class="e" d="M118.876,123.385a6.077,6.077,0,0,1,6.656-3.065c1.366.34,4.855,2.4,6.079,3.1,2.03,1.152,16.46,9.4,24.391,13.928a7.2,7.2,0,0,1,3.227,8.623l-2.987,8.586-2.808,8.071-4.555,13.1-7.446-2.438,7.435-27.725-24.6-10.9c-2.279-1.01-5.086-1.761-6.075-4.291a8.282,8.282,0,0,1,.686-6.983Z" transform="translate(-117.707 -120.153)"/></g><g transform="translate(24.573 60.413)"><path class="b" d="M117.495,122.321a6.93,6.93,0,0,1,7.625-3.474,32.753,32.753,0,0,1,5.789,2.891l.511.292c1.879,1.066,14.3,8.164,24.393,13.929a8.083,8.083,0,0,1,3.62,9.671l-2.987,8.586a.876.876,0,1,1-1.654-.575l2.986-8.586a6.331,6.331,0,0,0-2.834-7.575c-10.09-5.765-22.512-12.861-24.389-13.926l-.519-.3a36.629,36.629,0,0,0-5.341-2.711,5.2,5.2,0,0,0-5.687,2.655,7.372,7.372,0,0,0-.627,6.225c.7,1.781,2.534,2.534,4.481,3.333.385.158.766.314,1.133.476l24.6,10.9a.875.875,0,0,1,.491,1.028l-7.22,26.923,5.84,1.912,4.273-12.283a.876.876,0,1,1,1.654.575l-4.555,13.1a.874.874,0,0,1-1.1.545l-7.446-2.437a.876.876,0,0,1-.573-1.059l7.24-27-23.918-10.594c-.353-.156-.719-.306-1.088-.458-2.1-.861-4.478-1.836-5.448-4.316a9.16,9.16,0,0,1,.745-7.741Z" transform="translate(-116.209 -118.654)"/></g><g transform="translate(25.447 61.288)"><path class="f" d="M128.132,123.385a6.058,6.058,0,0,1,6.654-3.062c1.365.34,4.853,2.4,6.079,3.09,1.883,1.071,14.485,8.269,22.617,12.92l-5.417,9.2c-1.387-.611-22.068-9.777-24.547-10.867-2.278-1.013-5.084-1.759-6.07-4.292a8.254,8.254,0,0,1,.685-6.985Z" transform="translate(-126.961 -120.154)"/></g><g transform="translate(24.573 60.413)"><path class="b" d="M126.75,122.323a6.909,6.909,0,0,1,7.623-3.473,32.525,32.525,0,0,1,5.681,2.826l.62.352c1.883,1.071,14.486,8.27,22.618,12.921a.876.876,0,0,1,.32,1.2l-5.417,9.2a.876.876,0,0,1-1.108.357c-.565-.248-4.326-1.915-8.756-3.877-6.452-2.858-14.322-6.344-15.795-6.992-.357-.159-.728-.311-1.1-.465-2.092-.859-4.463-1.832-5.427-4.308a9.131,9.131,0,0,1,.743-7.742Zm.889,7.1h0c.692,1.777,2.523,2.529,4.461,3.325.39.16.776.319,1.145.483,1.47.646,9.343,4.134,15.8,6.992l8.04,3.561,4.571-7.76c-8.134-4.651-20.02-11.441-21.841-12.477l-.626-.356a35.519,35.519,0,0,0-5.237-2.648,5.174,5.174,0,0,0-5.684,2.654A7.347,7.347,0,0,0,127.639,129.427Z" transform="translate(-125.463 -118.655)"/></g><g transform="translate(44.957 112.362)"><path class="g" d="M116.266,216.821l.326-.754,2.7-6.265.712-1.651a.763.763,0,0,1,1.377-.17,4.258,4.258,0,0,0,2.634,2.236,5.186,5.186,0,0,0,3.839-.23.764.764,0,0,1,1.043.922l0,.009a3,3,0,0,0-.008,1.779,2.882,2.882,0,0,0,.137.361,3.011,3.011,0,0,0,1.844,1.634l4.3,1.347a6.184,6.184,0,0,1,1.024.425,6.124,6.124,0,0,1,2.986,7.245,3.386,3.386,0,0,1-4.245,2.22L118.3,220.717a3.107,3.107,0,0,1-2.178-3.023A3.046,3.046,0,0,1,116.266,216.821Z" transform="translate(-116.125 -207.618)"/></g><g transform="translate(44.08 111.485)"><path class="b" d="M114.807,215.935q.014-.044.032-.086l3.728-8.636a1.638,1.638,0,0,1,2.936-.325,3.418,3.418,0,0,0,2.155,1.867,4.3,4.3,0,0,0,3.23-.2,1.64,1.64,0,0,1,1.764.287,1.619,1.619,0,0,1,.46,1.711,2.134,2.134,0,0,0,1.4,2.676l4.3,1.347a7.047,7.047,0,0,1,1.167.485,6.849,6.849,0,0,1,.965.612,7.026,7.026,0,0,1,1.973,2.336,6.941,6.941,0,0,1,.477,5.334,4.265,4.265,0,0,1-5.342,2.794l-16.632-5.211a3.981,3.981,0,0,1-2.61-4.993Zm3.134,3.321,16.632,5.211a2.521,2.521,0,0,0,2.75-.875,2.491,2.491,0,0,0,.4-.771,5.2,5.2,0,0,0-.358-4,5.256,5.256,0,0,0-1.479-1.752,5.112,5.112,0,0,0-.72-.457,5.306,5.306,0,0,0-.878-.365l-4.3-1.347a3.88,3.88,0,0,1-2.379-2.106,3.8,3.8,0,0,1-.178-.471,3.871,3.871,0,0,1-.051-2.075,6.035,6.035,0,0,1-4.244.176,4.984,4.984,0,0,1-3-2.426l-3.668,8.5a2.219,2.219,0,0,0-.089.587,2.243,2.243,0,0,0,1.565,2.171Z" transform="translate(-114.624 -206.116)"/></g><g transform="translate(55.019 117.44)"><path class="b" d="M131.846,218.927a1.121,1.121,0,0,1,.318-.5l2.334-2.116a2.892,2.892,0,0,0,.137.361,3,3,0,0,0,1.285,1.4L133.68,220.1a1.129,1.129,0,0,1-1.834-1.175Z" transform="translate(-131.794 -216.315)"/></g><g transform="translate(58.562 119.572)"><path class="b" d="M125.872,221.557a1.126,1.126,0,0,1,.319-.5l1.207-1.094,2.495.781-2.187,1.983a1.127,1.127,0,0,1-1.833-1.173Z" transform="translate(-125.82 -219.965)"/></g><g transform="translate(12.81 121.966)"><path class="b" d="M205.113,225.066a1.128,1.128,0,0,1,1.245-1l1.619.18.138.308a6.182,6.182,0,0,1,.36,1.048,5.979,5.979,0,0,1,.157.985l-2.523-.28A1.126,1.126,0,0,1,205.113,225.066Z" transform="translate(-205.106 -224.064)"/></g><g transform="translate(62.104 120.683)"><path class="b" d="M120.331,223.458a1.126,1.126,0,0,1,.319-.5l1.207-1.094.322.1a6.185,6.185,0,0,1,1.024.425,6,6,0,0,1,.842.534l-1.881,1.705a1.128,1.128,0,0,1-1.833-1.173Z" transform="translate(-120.279 -221.866)"/></g></svg>