<svg xmlns="http://www.w3.org/2000/svg" width="118.375" height="131.075" viewBox="0 0 118.375 131.075"><defs><style>.a{fill:#ffbebe;}.b,.m{fill:#fdbe7b;}.c{fill:#d16720;}.d{fill:#f1f1f2;}.e{fill:#959494;}.f{fill:#e50019;}.g,.j{fill:#b21320;}.h,.p{fill:#fff;}.i{fill:#e0e0df;}.ag,.j,.m,.t,.u,.w{mix-blend-mode:multiply;}.af,.ag,.j,.m,.t,.u,.w{isolation:isolate;}.k{fill:#25373a;}.l{fill:#181816;}.af,.m,.p,.t,.u,.w{opacity:0.5;}.n{fill:#469c35;}.o{fill:#193e1d;}.af,.q{fill:#fdbc7b;}.r{fill:#d06620;}.s{fill:#ca4e1b;}.t{fill:#d47819;}.u{fill:#cfd0cf;}.v,.w{fill:#f07773;}.x{fill:#522c12;}.y{fill:#361e15;}.z{fill:#fffbec;}.aa{fill:#6b3b1c;}.ab{fill:#2d140b;}.ac{fill:#e5eaec;}.ad,.ag{fill:#ffb70e;}.ae{fill:#dc7b15;}.af{mix-blend-mode:screen;}.ag{opacity:0.8;}</style></defs><g transform="translate(-204.889 -826.299)"><ellipse class="a" cx="57.264" cy="57.264" rx="57.264" ry="57.264" transform="translate(208.736 833.389)"/><g transform="translate(703.375 589.936)"><g transform="translate(-458.875 332.582)"><g transform="translate(5.053)"><path class="b" d="M-447.034,352.878a3.546,3.546,0,0,1,3.4-2.307c1.2.433,2.382.951,3.571,1.4.765.28,1.519.578,2.276.876.308.121.613.265.927.39a18.607,18.607,0,0,1,.707-2.322c.134-.349.256-.713.385-1.077.167-.719.359-1.423.5-2.1.4-1.887,2.452-.856,3.706-.583a16.733,16.733,0,0,1,5.221,1.829c.777.471,2.108,1.882,1,2.676a.1.1,0,0,1-.056.021,27.175,27.175,0,0,1-1.426,2.588,18.711,18.711,0,0,1-2.026,3.037c-1.423,1.694-3.494,3.445-5.823,3.487a8.552,8.552,0,0,1-3.3-.976c-1.323-.534-2.611-1.144-3.884-1.774-1.741-.862-3.545-1.757-5.238-2.779A4.5,4.5,0,0,1-447.034,352.878Z" transform="translate(447.355 -346.494)"/><path class="c" d="M-437.516,360.139c-.177-.073-.35-.144-.521-.217-1.166-.479-2.4-1.043-3.892-1.777-1.739-.867-3.54-1.755-5.246-2.782a.137.137,0,0,1-.06-.088,4.7,4.7,0,0,1,.052-2.458,3.71,3.71,0,0,1,3.464-2.4l.073.006a.167.167,0,0,1,.045,0c.637.229,1.282.489,1.9.743.551.218,1.111.447,1.671.655.811.3,1.605.611,2.279.876.177.072.362.149.542.227.077.034.161.07.241.1a19.015,19.015,0,0,1,.676-2.183c.086-.225.167-.453.245-.684l.136-.377q.1-.418.2-.823c.112-.445.211-.861.3-1.27a1.369,1.369,0,0,1,1.459-1.217,6.422,6.422,0,0,1,1.681.336c.261.072.505.146.724.191a16.919,16.919,0,0,1,5.266,1.851,3.058,3.058,0,0,1,1.484,1.993,1.032,1.032,0,0,1-.476.905c-.012.008-.026.013-.036.021a14.192,14.192,0,0,1-.927,1.718c-.164.279-.329.547-.476.821a18.682,18.682,0,0,1-2.045,3.06c-1.332,1.589-3.439,3.493-5.92,3.537h-.067A7.148,7.148,0,0,1-437.516,360.139Zm2.359-12.39c-.087.412-.19.83-.294,1.276-.072.271-.14.545-.208.837l-.135.389c-.084.233-.163.463-.247.689a18.152,18.152,0,0,0-.7,2.308.146.146,0,0,1-.073.086.129.129,0,0,1-.112.006c-.133-.055-.261-.107-.392-.168-.175-.08-.355-.151-.53-.226-.676-.26-1.469-.577-2.274-.872-.56-.207-1.13-.437-1.681-.657-.616-.25-1.246-.508-1.868-.732l-.047,0a3.438,3.438,0,0,0-3.208,2.219,4.4,4.4,0,0,0-.06,2.259c1.679,1.008,3.459,1.89,5.177,2.744,1.488.738,2.714,1.3,3.876,1.772.172.07.343.145.518.22a6.992,6.992,0,0,0,2.668.745h.062c2.378-.042,4.423-1.894,5.723-3.439a18.572,18.572,0,0,0,2.008-3.018c.155-.276.32-.551.482-.826a14.7,14.7,0,0,0,.939-1.745.109.109,0,0,1,.1-.08.772.772,0,0,0,.362-.675,2.858,2.858,0,0,0-1.358-1.777,16.662,16.662,0,0,0-5.179-1.813c-.229-.05-.476-.118-.743-.195a6.051,6.051,0,0,0-1.607-.327A1.1,1.1,0,0,0-435.157,347.749Z" transform="translate(447.374 -346.475)"/><path class="c" d="M-435.1,352.207c.247-.8.487-1.6.744-2.4a10.878,10.878,0,0,1,.782-2.155c.066-.106.216,0,.189.1-.359,1.387-.817,2.74-1.224,4.112-.392,1.309-1.173,2.851-.918,4.254,0,.018-.02.026-.028.006C-436.068,354.965-435.452,353.334-435.1,352.207Z" transform="translate(445.907 -346.618)"/><g transform="translate(0 3.938)"><path class="d" d="M-447.034,353.447a3.546,3.546,0,0,1,3.4-2.307c1.2.433,2.382.951,3.571,1.4.33.121.66.251.994.376a6.074,6.074,0,0,0-2.149,3.417,4.993,4.993,0,0,0-.209,2.493c-.14-.071-.284-.142-.426-.211-1.741-.862-3.545-1.757-5.238-2.779A4.5,4.5,0,0,1-447.034,353.447Z" transform="translate(447.355 -351.002)"/><path class="e" d="M-441.5,358.922l-.429-.208c-1.739-.867-3.54-1.755-5.246-2.782a.137.137,0,0,1-.06-.088,4.7,4.7,0,0,1,.052-2.458,3.71,3.71,0,0,1,3.464-2.4l.073.006a.166.166,0,0,1,.045,0c.637.229,1.282.489,1.9.743.551.218,1.111.447,1.671.655.336.127.663.25.991.378a.133.133,0,0,1,.086.114.148.148,0,0,1-.063.125,5.687,5.687,0,0,0-2.089,3.342,4.837,4.837,0,0,0-.205,2.422.123.123,0,0,1-.044.133.116.116,0,0,1-.087.031A.118.118,0,0,1-441.5,358.922Zm1.376-6.279c-.56-.207-1.13-.437-1.681-.657-.616-.25-1.242-.508-1.868-.732l-.047,0a3.438,3.438,0,0,0-3.208,2.219,4.4,4.4,0,0,0-.06,2.259c1.679,1.008,3.459,1.89,5.177,2.744l.192.1a5.2,5.2,0,0,1,.26-2.3,6.36,6.36,0,0,1,1.98-3.346C-439.627,352.828-439.877,352.736-440.124,352.642Z" transform="translate(447.374 -350.982)"/></g></g><g transform="translate(0.242 2.023)"><path class="f" d="M-452.319,365.855c.242,1.074.407,2.227,1.619,2.5,1.943.433,3.2-1.14,3.848-2.777a12.116,12.116,0,0,0,.708-3.065,11.039,11.039,0,0,1,.453-2.552,1.678,1.678,0,0,1,.148-.323,1.552,1.552,0,0,0,.679-2.181c-.471-.649-1.363-.785-1.72-1.539a3.294,3.294,0,0,1,.07-2.653,3.073,3.073,0,0,1,1.733-1.652,3.979,3.979,0,0,1,.911-.235c.461.029,1.013.159,1.125-.419.094-.479-.481-.632-.809-.758a6.7,6.7,0,0,0-1.12-.307c-.277-.091-.548-.172-.8-.242a25.41,25.41,0,0,0-2.533-.663c-.8-.142-1,.065-1.569.609a6.075,6.075,0,0,0-1.305,1.844c-.23.509-.45,1.027-.641,1.552a21.32,21.32,0,0,0-1.09,5.956c-.059.789-.1,1.595-.114,2.4A19.168,19.168,0,0,0-452.319,365.855Z" transform="translate(452.859 -348.809)"/><path class="g" d="M-450.746,368.467c-1.212-.271-1.449-1.341-1.673-2.377l-.052-.228a19.639,19.639,0,0,1-.405-4.539c.01-.709.049-1.473.115-2.407a21.586,21.586,0,0,1,1.1-5.989c.187-.51.406-1.034.648-1.562a6.178,6.178,0,0,1,1.33-1.884l.026-.024c.557-.534.789-.773,1.659-.622a17.087,17.087,0,0,1,1.9.482c.216.062.427.127.643.187s.506.142.791.237a7.178,7.178,0,0,1,1.139.315l.1.038c.333.119.9.325.786.87a.675.675,0,0,1-.755.557c-.11,0-.227-.009-.344-.02a1.317,1.317,0,0,1-.137-.013,4.066,4.066,0,0,0-.883.228,2.945,2.945,0,0,0-1.651,1.583,3.14,3.14,0,0,0-.076,2.542,2.12,2.12,0,0,0,.872.815,2.927,2.927,0,0,1,.841.7,1.342,1.342,0,0,1,.242,1.059,2.128,2.128,0,0,1-.929,1.288,2.051,2.051,0,0,0-.128.28,8.365,8.365,0,0,0-.39,2.053q-.029.237-.055.468a12.541,12.541,0,0,1-.713,3.1c-.438,1.1-1.452,2.94-3.331,2.94h0A3.074,3.074,0,0,1-450.746,368.467Zm7.034-17.235a2.966,2.966,0,0,0,.32.024c.313,0,.45-.1.5-.346.057-.29-.237-.423-.622-.564l-.106-.039a6.828,6.828,0,0,0-1.116-.3c-.294-.1-.6-.185-.792-.239-.217-.06-.434-.126-.65-.187a17.7,17.7,0,0,0-1.866-.479c-.735-.123-.89.039-1.434.556l-.021.024a5.894,5.894,0,0,0-1.278,1.8c-.238.521-.451,1.038-.636,1.541a21.418,21.418,0,0,0-1.087,5.918c-.059.929-.1,1.686-.107,2.4a18.986,18.986,0,0,0,.4,4.471l.05.232c.219.994.426,1.936,1.468,2.172a2.9,2.9,0,0,0,.613.069h0c1.717,0,2.667-1.734,3.078-2.77a11.787,11.787,0,0,0,.7-3.029c.018-.154.035-.31.052-.47a8.978,8.978,0,0,1,.408-2.114,2.047,2.047,0,0,1,.16-.344.089.089,0,0,1,.045-.049,1.822,1.822,0,0,0,.836-1.13,1.052,1.052,0,0,0-.2-.855,2.572,2.572,0,0,0-.767-.633,2.354,2.354,0,0,1-.963-.925,3.408,3.408,0,0,1,.068-2.767,3.219,3.219,0,0,1,1.805-1.724,4.245,4.245,0,0,1,.971-.246C-443.821,351.224-443.768,351.227-443.712,351.232Z" transform="translate(452.879 -348.79)"/></g><g transform="translate(0 2.023)"><path class="h" d="M-452.988,361.467a39.118,39.118,0,0,1,.712-5.76,17.849,17.849,0,0,1,.723-2.714c.191-.525.412-1.043.641-1.552a6.075,6.075,0,0,1,1.305-1.844c.565-.544.766-.751,1.569-.609.149.023.3.06.444.091a9.253,9.253,0,0,0-2.676,3.977,28,28,0,0,0-1.5,7.871,19.306,19.306,0,0,0,.005,4.447c.183,1.056.924,3.064,2.275,2.977a2.654,2.654,0,0,1-1.25,0,2.079,2.079,0,0,1-1.832-1.893A19.241,19.241,0,0,1-452.988,361.467Z" transform="translate(453.137 -348.809)"/><path class="i" d="M-450.781,368.467a2.212,2.212,0,0,1-1.936-1.994,19.541,19.541,0,0,1-.424-5.033,38.173,38.173,0,0,1,.718-5.776,17.552,17.552,0,0,1,.724-2.737c.187-.51.405-1.034.648-1.562a6.178,6.178,0,0,1,1.33-1.884l.026-.024c.557-.534.789-.773,1.657-.622.142.024.273.051.41.083l.048.01a.128.128,0,0,1,.1.1.148.148,0,0,1-.043.135,9.1,9.1,0,0,0-2.636,3.918,27.477,27.477,0,0,0-1.49,7.834q-.028.362-.05.721a15.448,15.448,0,0,0,.052,3.7c.143.813.817,2.946,2.135,2.864a.136.136,0,0,1,.145.115.131.131,0,0,1-.1.149,2.831,2.831,0,0,1-.652.078h0A3.251,3.251,0,0,1-450.781,368.467Zm2.7-19.371c-.735-.123-.89.039-1.434.556l-.021.024a5.9,5.9,0,0,0-1.278,1.8c-.238.521-.451,1.038-.636,1.541a17.244,17.244,0,0,0-.713,2.7,37.85,37.85,0,0,0-.71,5.731,19.283,19.283,0,0,0,.412,4.962,1.95,1.95,0,0,0,1.734,1.793,3.554,3.554,0,0,0,.4.062,4.485,4.485,0,0,1-1.585-2.888,15.867,15.867,0,0,1-.054-3.762c.015-.238.031-.482.045-.719a27.875,27.875,0,0,1,1.507-7.911,9.489,9.489,0,0,1,2.512-3.855C-447.959,349.119-448.022,349.109-448.079,349.1Z" transform="translate(453.156 -348.79)"/></g><path class="j" d="M-447.213,356.546a5.317,5.317,0,0,1,1.178-.021,2.6,2.6,0,0,1-.25-2.106,4.966,4.966,0,0,1,2.371-3.684c.037-.019.081.041.047.066a5.7,5.7,0,0,0-2.139,4.847.09.09,0,0,1-.041.08,1.548,1.548,0,0,0,.537.9,2.787,2.787,0,0,1,.675.281,1.518,1.518,0,0,1,.933,1.585c-.02.075-.116.041-.135-.016a2.029,2.029,0,0,0-1.221-1.437c-.086-.037-.164-.068-.251-.1a.147.147,0,0,1-.154-.016.182.182,0,0,0-.038-.034c-.5-.134-1-.141-1.5-.267C-447.239,356.616-447.258,356.557-447.213,356.546Z" transform="translate(452.409 -347.012)"/></g><g transform="translate(-452.922 317)"><path class="k" d="M-446.042,336.63a17.057,17.057,0,0,0,2.476,7.695,20.03,20.03,0,0,0,5.891,5.385c.613.4,1.227.793,1.825,1.215.389.278.737.7,1.15.946a1.21,1.21,0,0,0,.426.935c.754.5,1.813-1.472,2.075-1.866a10.745,10.745,0,0,1,3.382-3.113,17.536,17.536,0,0,0,3.432-2.573,7.113,7.113,0,0,0,3.111,1.631c.782.108,1.889-.072,2.187-.934a1.545,1.545,0,0,0-.121-1.271,15.184,15.184,0,0,0,1.793-3.861,11.406,11.406,0,0,0,.565-3.079c.017-.557,0-1.109-.017-1.668,0-.2-.031-.415-.051-.625a1.588,1.588,0,0,0,.9-1.513,2.374,2.374,0,0,0-1.781-1.7,1.905,1.905,0,0,0-1.132-.04c-.906.148-1.805.3-2.705.495-.042.01-.081.015-.121.025-1.149.025-2.3,0-3.449.042-1.242.042-2.457.135-3.7.086-1.145-.045-2.289-.081-3.425-.2a31.256,31.256,0,0,1-7.025-1.648,26.906,26.906,0,0,1-2.791-1.079,3.851,3.851,0,0,1-1.334-.9c-.119-.14-.162-.218-.337-.213a.158.158,0,0,0-.136.114.106.106,0,0,0-.008.042,5.769,5.769,0,0,0-1.116,3.2A19.737,19.737,0,0,0-446.042,336.63Z" transform="translate(446.324 -328.662)"/><path class="l" d="M-434.368,352.9a1.281,1.281,0,0,1-.478-.971,5.291,5.291,0,0,1-.614-.509c-.165-.144-.322-.287-.488-.409-.494-.35-1.017-.687-1.52-1.013l-.3-.2a19.556,19.556,0,0,1-5.926-5.423,17.228,17.228,0,0,1-2.493-7.754,20.124,20.124,0,0,1-.042-4.5,6.058,6.058,0,0,1,1.132-3.258v-.013a.318.318,0,0,1,.284-.208.454.454,0,0,1,.385.218l.038.043a3.845,3.845,0,0,0,1.288.871,24.932,24.932,0,0,0,2.608,1.01l.171.061a30.873,30.873,0,0,0,6.992,1.639c.982.1,1.993.141,2.967.178l.448.021c.895.04,1.8-.006,2.672-.047.34-.011.679-.03,1.025-.04.635-.024,1.285-.024,1.91-.027.513,0,1.025,0,1.509-.011l.123-.021c.874-.192,1.711-.337,2.713-.5a3.661,3.661,0,0,1,.637-.066,1.229,1.229,0,0,1,.565.112,2.492,2.492,0,0,1,1.86,1.8,1.639,1.639,0,0,1-.893,1.613v.019a5.351,5.351,0,0,1,.045.557c.019.541.035,1.1.017,1.649a11.479,11.479,0,0,1-.571,3.115,15.4,15.4,0,0,1-1.766,3.836,1.642,1.642,0,0,1,.093,1.3,1.839,1.839,0,0,1-1.892,1.052,2.546,2.546,0,0,1-.442-.037,6.978,6.978,0,0,1-3.075-1.576,17.641,17.641,0,0,1-3.253,2.429l-.123.076A10.538,10.538,0,0,0-432.106,351c-.029.049-.074.12-.134.208-.379.627-1.1,1.8-1.792,1.8h-.005A.605.605,0,0,1-434.368,352.9Zm9.051-7.773a7,7,0,0,0,3.042,1.6,2.612,2.612,0,0,0,.405.031c.317,0,1.355-.064,1.642-.873a1.409,1.409,0,0,0-.116-1.161.136.136,0,0,1,.01-.141,15.19,15.19,0,0,0,1.776-3.825,11.287,11.287,0,0,0,.557-3.043c.016-.545,0-1.1-.019-1.663,0-.163-.02-.335-.04-.51l-.008-.1a.126.126,0,0,1,.057-.125c.3-.2.986-.724.85-1.377a2.23,2.23,0,0,0-1.673-1.6l-.031-.013a.981.981,0,0,0-.461-.093,3.975,3.975,0,0,0-.592.066c-1,.163-1.837.306-2.7.495l-.142.027c-.52.014-1.031.014-1.545.014-.623,0-1.271.005-1.906.026-.336.012-.678.026-1.018.041-.878.044-1.79.081-2.691.046l-.45-.017c-.981-.042-1.995-.082-2.984-.178a31.277,31.277,0,0,1-7.054-1.657l-.173-.06a25.737,25.737,0,0,1-2.633-1.023,4.072,4.072,0,0,1-1.383-.938l-.031-.045c-.088-.1-.1-.118-.183-.118l-.017-.136-.011.153-.006.04a.121.121,0,0,1-.032.052,5.752,5.752,0,0,0-1.08,3.139,19.81,19.81,0,0,0,.041,4.436,16.9,16.9,0,0,0,2.449,7.632,19.388,19.388,0,0,0,5.849,5.348l.3.195c.505.329,1.026.667,1.53,1.023a5.472,5.472,0,0,1,.508.432,4.432,4.432,0,0,0,.635.508.144.144,0,0,1,.065.106,1.029,1.029,0,0,0,.366.835.3.3,0,0,0,.178.058h.005c.543,0,1.258-1.17,1.567-1.666.056-.094.1-.17.137-.223a10.882,10.882,0,0,1,3.419-3.153l.123-.08a17.042,17.042,0,0,0,3.288-2.467.135.135,0,0,1,.094-.045A.135.135,0,0,1-425.317,345.128Z" transform="translate(446.343 -328.643)"/></g><path class="l" d="M-427.931,338.659a5.742,5.742,0,0,1,2.282.973,4.037,4.037,0,0,0,1.06.123,3.934,3.934,0,0,0,1.167-.357c.826-.343,1.6-.8,2.424-1.15a.067.067,0,0,1,.058.121,14.526,14.526,0,0,1-2.94,1.631,3.171,3.171,0,0,1-.928.18c.48.313.966.63,1.452.929.226.143.458.26.682.392a2.511,2.511,0,0,1,1.031.572c1.153,1.044.412,3.667-.981,4.185-.091.037-.2-.1-.108-.163,1.095-.724,1.759-2.845.726-3.814a.113.113,0,0,1-.118-.01c-.221-.149-.446-.287-.668-.422-1.193-.341-2.449.587-3.372,1.275-.076.052-.193-.046-.134-.128a3.777,3.777,0,0,1,2.808-1.595c-.426-.265-.851-.525-1.278-.791a17.668,17.668,0,0,0-3.182-1.826C-428.017,338.758-428,338.651-427.931,338.659Z" transform="translate(-8.894 -12.854)"/><path class="l" d="M-442.507,332.319c.01-.055.1-.026.1.024a21.039,21.039,0,0,0,.623,5.123,8.206,8.206,0,0,0,.237.937A3.781,3.781,0,0,0-440,336.217a7.342,7.342,0,0,0,.032-3.556.156.156,0,0,1,.3-.082,6.131,6.131,0,0,1-.005,4c-.176.5-1.015,2.059-1.783,2.136a14.013,14.013,0,0,0,1.83,3.48,28.344,28.344,0,0,0,3.2,3.561,24.082,24.082,0,0,0,3.692,3.127c.109.075.034.268-.1.211a7.522,7.522,0,0,1-1.763-1.234c-.7-.6-1.427-1.158-2.109-1.785a23.1,23.1,0,0,1-3.377-3.788,12.971,12.971,0,0,1-2.05-4.53A13.722,13.722,0,0,1-442.507,332.319Z" transform="translate(-7.045 -12.103)"/><g transform="translate(-441.524 329.989)"><g transform="translate(3.544 0.551)"><path class="b" d="M-427.3,347.661a12.8,12.8,0,0,1,3.352-3.367,10.7,10.7,0,0,1,1.842,1.127,16.207,16.207,0,0,1,3.141,3.055,30.136,30.136,0,0,1,4.106,7.513c1.77,4.433,2.41,9.242,4.145,13.663a1.77,1.77,0,0,0-1.051.474c-.765.757-.231,2.033-1.051,2.7a4.053,4.053,0,0,1-3.3.526c-.156-.041-.3-.081-.442-.133a13.712,13.712,0,0,1-.663-3.526,20.657,20.657,0,0,0-1.231-4.331c-.466-1.287-.956-2.571-1.518-3.825a30.078,30.078,0,0,0-4.481-7.005,23.006,23.006,0,0,0-3.026-3c-.513-.424-1.063-.8-1.61-1.184A16.183,16.183,0,0,1-427.3,347.661Z" transform="translate(429.224 -344.158)"/><path class="c" d="M-416.17,373.464c-.149-.034-.3-.083-.456-.13a.148.148,0,0,1-.079-.079,10.575,10.575,0,0,1-.592-2.885c-.024-.226-.05-.455-.076-.676a19.961,19.961,0,0,0-1.163-4.134l-.063-.164c-.548-1.518-1.027-2.73-1.514-3.816a29.656,29.656,0,0,0-4.459-6.973,23.087,23.087,0,0,0-3.009-2.989c-.5-.4-1.027-.779-1.542-1.139l-.065-.04a.135.135,0,0,1-.043-.165,15.661,15.661,0,0,1,1.728-2.615l.079-.1a12.772,12.772,0,0,1,3.377-3.4.142.142,0,0,1,.129-.011,10.91,10.91,0,0,1,1.871,1.147,16.266,16.266,0,0,1,3.163,3.076,29.713,29.713,0,0,1,4.129,7.547,58.139,58.139,0,0,1,2.11,6.937,58.5,58.5,0,0,0,2.031,6.723.128.128,0,0,1-.008.118.167.167,0,0,1-.1.067,1.6,1.6,0,0,0-.971.434,2.04,2.04,0,0,0-.461,1.275,2.014,2.014,0,0,1-.6,1.439,3.584,3.584,0,0,1-2.271.684h0A4.844,4.844,0,0,1-416.17,373.464Zm3.265-10.537a57.026,57.026,0,0,0-2.1-6.909,29.558,29.558,0,0,0-4.088-7.481,15.914,15.914,0,0,0-3.117-3.025,10.563,10.563,0,0,0-1.752-1.087,12.78,12.78,0,0,0-3.253,3.3l-.073.1a16.229,16.229,0,0,0-1.654,2.459c.515.357,1.041.731,1.527,1.129a22.792,22.792,0,0,1,3.043,3.021,29.685,29.685,0,0,1,4.5,7.04c.489,1.093.973,2.31,1.524,3.831l.061.165a19.644,19.644,0,0,1,1.176,4.193c.026.226.056.456.079.68a10.565,10.565,0,0,0,.55,2.759c.122.038.252.074.374.106a4.531,4.531,0,0,0,1.086.13,3.334,3.334,0,0,0,2.1-.625,1.85,1.85,0,0,0,.5-1.27,2.248,2.248,0,0,1,.534-1.429,1.863,1.863,0,0,1,.958-.489A60.715,60.715,0,0,1-412.905,362.927Z" transform="translate(429.244 -344.139)"/><g transform="translate(9.398 13.231)"><path class="d" d="M-416.909,361.658a5.929,5.929,0,0,1,2.307-1.98,2.067,2.067,0,0,1,1.713-.091c1.332,3.951,2.01,8.1,3.529,11.977a1.77,1.77,0,0,0-1.051.474c-.765.757-.231,2.033-1.051,2.7a4.053,4.053,0,0,1-3.3.526c-.156-.041-.3-.081-.442-.133a13.712,13.712,0,0,1-.663-3.526,20.657,20.657,0,0,0-1.231-4.331c-.386-1.073-.792-2.134-1.241-3.184A13.353,13.353,0,0,1-416.909,361.658Z" transform="translate(418.47 -359.3)"/><path class="e" d="M-414.813,375.374c-.148-.034-.3-.083-.456-.13a.148.148,0,0,1-.079-.079,10.576,10.576,0,0,1-.592-2.885c-.024-.226-.05-.455-.076-.676a19.963,19.963,0,0,0-1.163-4.134l-.063-.164c-.432-1.193-.835-2.233-1.236-3.18a.135.135,0,0,1,0-.107,13.5,13.5,0,0,1,1.44-2.461,6.008,6.008,0,0,1,2.36-2.026,2.163,2.163,0,0,1,1.829-.087.125.125,0,0,1,.07.077c.578,1.728,1.043,3.514,1.491,5.246a58.5,58.5,0,0,0,2.031,6.723.128.128,0,0,1-.008.118.167.167,0,0,1-.1.067,1.6,1.6,0,0,0-.971.434,2.04,2.04,0,0,0-.461,1.275,2.015,2.015,0,0,1-.6,1.439,3.584,3.584,0,0,1-2.271.684h0A4.843,4.843,0,0,1-414.813,375.374Zm3.265-10.537c-.442-1.71-.9-3.476-1.467-5.175a1.951,1.951,0,0,0-1.558.116,5.836,5.836,0,0,0-2.252,1.939,13.015,13.015,0,0,0-1.383,2.358c.4.937.8,1.963,1.219,3.136l.061.165a19.644,19.644,0,0,1,1.176,4.193c.026.226.056.456.08.68a10.564,10.564,0,0,0,.55,2.759c.122.038.252.074.374.106a4.533,4.533,0,0,0,1.086.13,3.334,3.334,0,0,0,2.1-.625,1.85,1.85,0,0,0,.5-1.27,2.248,2.248,0,0,1,.534-1.429,1.863,1.863,0,0,1,.958-.489A61.076,61.076,0,0,1-411.548,364.838Z" transform="translate(418.489 -359.28)"/></g><g transform="translate(10.515 23.59)"><path class="f" d="M-416.636,379.624c.361,1.438.73,4.025,2.438,4.515,2.769.8,7.9-1.208,8.751-1.435a25.146,25.146,0,0,0,4.831-1.866c1.6-.811,3.093-1.761,4.61-2.711a12.513,12.513,0,0,0,1.942-1.5,3.643,3.643,0,0,0,1.091-1.374c.2-.557-.291-1.249-.56-1.686a5.676,5.676,0,0,0-1.374-1.658,3.994,3.994,0,0,0-3.966-.195c-1.65.666-3.231,1.363-4.936,1.866a5.865,5.865,0,0,1-2.884.321,3.76,3.76,0,0,1-.709-.243c-.917-1.144-2.324-1.949-3.744-1.014a2.855,2.855,0,0,0-1.208,2.69,3.084,3.084,0,0,1-1.863.346c-.547-.1-.688-.4-1.1-.672a.408.408,0,0,0-.442.076,8.638,8.638,0,0,0-.742.825,1.734,1.734,0,0,0-.509.873A7.209,7.209,0,0,0-416.636,379.624Z" transform="translate(417.191 -371.154)"/><path class="g" d="M-414.258,384.25c-1.573-.455-2.047-2.528-2.392-4.039-.048-.2-.094-.4-.141-.58l-.068-.282a6.434,6.434,0,0,1-.3-2.609,1.8,1.8,0,0,1,.544-.938c.1-.1.181-.213.271-.319a3.368,3.368,0,0,1,.481-.518.558.558,0,0,1,.606-.088,3.443,3.443,0,0,1,.346.276,1.313,1.313,0,0,0,.7.378,2.827,2.827,0,0,0,1.675-.29,3.043,3.043,0,0,1,1.292-2.727,2.429,2.429,0,0,1,1.361-.429,3.544,3.544,0,0,1,2.547,1.445,3.315,3.315,0,0,0,.647.226,3.322,3.322,0,0,0,.71.073,7.71,7.71,0,0,0,2.105-.392,40.342,40.342,0,0,0,3.964-1.471c.322-.133.64-.26.964-.39a4.079,4.079,0,0,1,4.1.211,5.709,5.709,0,0,1,1.407,1.693l.075.12c.279.445.7,1.112.5,1.685a3.638,3.638,0,0,1-1.057,1.361l-.069.065a12.7,12.7,0,0,1-1.968,1.514l-.308.2c-1.382.863-2.818,1.766-4.311,2.517a25.112,25.112,0,0,1-4.854,1.884c-.128.029-.364.109-.664.207a23.328,23.328,0,0,1-6.59,1.417h0A5.755,5.755,0,0,1-414.258,384.25Zm15.417-12.426c-.327.125-.648.262-.963.392a41.952,41.952,0,0,1-3.989,1.476,7.915,7.915,0,0,1-2.184.405,3.754,3.754,0,0,1-.769-.08,3.584,3.584,0,0,1-.732-.26.157.157,0,0,1-.046-.038,3.319,3.319,0,0,0-2.358-1.368,2.224,2.224,0,0,0-1.215.385,2.729,2.729,0,0,0-1.153,2.546.129.129,0,0,1-.071.152,3.167,3.167,0,0,1-1.939.36,1.588,1.588,0,0,1-.827-.442,2.975,2.975,0,0,0-.326-.253.135.135,0,0,0-.064-.016.392.392,0,0,0-.218.082,3.473,3.473,0,0,0-.441.485c-.1.114-.184.224-.287.329a1.543,1.543,0,0,0-.472.812,6.154,6.154,0,0,0,.3,2.488l.073.289c.044.177.086.372.137.58.33,1.447.781,3.43,2.2,3.841a5.538,5.538,0,0,0,1.5.182h0a23.252,23.252,0,0,0,6.5-1.4c.317-.106.542-.181.682-.218a24.757,24.757,0,0,0,4.8-1.859c1.482-.749,2.908-1.642,4.289-2.506l.306-.194a12.755,12.755,0,0,0,1.927-1.482l.069-.067a3.356,3.356,0,0,0,.986-1.261c.164-.445-.2-1.019-.474-1.444l-.073-.125a5.509,5.509,0,0,0-1.34-1.618,3.193,3.193,0,0,0-1.9-.6A5.154,5.154,0,0,0-398.841,371.824Z" transform="translate(417.211 -371.135)"/></g><path class="g" d="M-414.976,375.7a3.87,3.87,0,0,0,2.813-.223,3.121,3.121,0,0,1,.122-1.158,2.7,2.7,0,0,1,2.713-1.921.03.03,0,0,1,.011.059,2.928,2.928,0,0,0-2.278,1.819,2.8,2.8,0,0,0-.15,1.535,3.749,3.749,0,0,0,.779,1.291c.064.093-.024.226-.133.149a2.473,2.473,0,0,1-1.028-1.523,2.575,2.575,0,0,1-2.908.161C-415.1,375.83-415.093,375.679-414.976,375.7Z" transform="translate(427.456 -347.704)"/><g transform="translate(12.295 26.363)"><path class="h" d="M-407.561,382.507a36.623,36.623,0,0,0,9.478-4.013,33.685,33.685,0,0,0,3.938-2.9c.412-.361.793-.742,1.168-1.13a1.505,1.505,0,0,1,.259,1.193,3.643,3.643,0,0,1-1.091,1.374,12.513,12.513,0,0,1-1.942,1.5c-1.517.95-3.013,1.9-4.61,2.711a25.146,25.146,0,0,1-4.831,1.866c-.853.226-5.981,2.238-8.751,1.435a2.116,2.116,0,0,1-1.08-.748A23.536,23.536,0,0,0-407.561,382.507Z" transform="translate(415.155 -374.328)"/><path class="i" d="M-414,384.651a2.316,2.316,0,0,1-1.141-.792.132.132,0,0,1-.016-.149.125.125,0,0,1,.125-.069,23.231,23.231,0,0,0,7.414-1.285,37.351,37.351,0,0,0,9.446-3.992,33.383,33.383,0,0,0,3.923-2.9c.351-.3.708-.649,1.158-1.115a.142.142,0,0,1,.114-.044.119.119,0,0,1,.1.07,1.646,1.646,0,0,1,.275,1.3,3.638,3.638,0,0,1-1.057,1.361l-.069.065a12.7,12.7,0,0,1-1.968,1.514l-.308.2c-1.382.863-2.818,1.766-4.311,2.517a25.112,25.112,0,0,1-4.854,1.884c-.128.029-.364.109-.664.207a23.328,23.328,0,0,1-6.59,1.417A5.755,5.755,0,0,1-414,384.651Zm19.929-8.98a33.37,33.37,0,0,1-3.961,2.917,37.346,37.346,0,0,1-9.513,4.028,24.754,24.754,0,0,1-7.178,1.3,1.829,1.829,0,0,0,.8.474,5.538,5.538,0,0,0,1.5.182,23.252,23.252,0,0,0,6.5-1.4c.317-.106.542-.181.682-.218a24.757,24.757,0,0,0,4.8-1.859c1.482-.749,2.908-1.642,4.289-2.506l.306-.194a12.755,12.755,0,0,0,1.927-1.482l.069-.067a3.356,3.356,0,0,0,.986-1.261,1.21,1.21,0,0,0-.163-.918C-393.424,375.076-393.752,375.392-394.072,375.67Z" transform="translate(415.174 -374.308)"/></g></g><path class="l" d="M-432.995,351.674c.046-.15.294-.079.273.073-.079.561-.379,2,.113,2.4.779.649,2.492-3.34,2.695-3.737a20.012,20.012,0,0,1,1.364-2.22,14.3,14.3,0,0,1,1.611-2.117c1.134-1.126,2.329-2.537,4.03-2.566.036,0,.068.059.028.073a7.354,7.354,0,0,0-1.166.38,6.477,6.477,0,0,0-1.328,1.112,16.631,16.631,0,0,0-2.283,2.58,28.622,28.622,0,0,0-1.774,2.808c-.472.883-.878,1.793-1.356,2.67-.308.564-1.528,2.277-2.245,1.183A3.321,3.321,0,0,1-432.995,351.674Z" transform="translate(433.299 -343.508)"/></g><g transform="translate(-483.571 292.13)"><g transform="translate(0 0)"><path class="b" d="M-480.43,306.153c.065.353.437.65.641.929.994,1.353,1.332,3.266,2.868,4.174a9.63,9.63,0,0,0,5.134,1.42c1.09-.046,2.356-.8,3.346-.169a15.969,15.969,0,0,0,1.589.9c1.28.634,2.488,1.405,3.785,2.005a13.584,13.584,0,0,0,3.971,1.268,12.472,12.472,0,0,0,4.1-.32,18.76,18.76,0,0,0,3.792-1.188c.255-.112.687-.19.845-.437s-.024-.715-.088-.971a10,10,0,0,0-1.364-3.21,5.408,5.408,0,0,0-1.09-1.312c-.3-.234-1.134-.693-1.514-.393a7.6,7.6,0,0,1-4.845,1.316A17.017,17.017,0,0,0-461.6,308.9c-1.064-.468-2.162-.814-3.253-1.2a6.8,6.8,0,0,0-1.733-.468,2.51,2.51,0,0,0,.56-2.021,2.513,2.513,0,0,0-1.237-1.655,2.928,2.928,0,0,1-1.022-1.2c-.205-.463-.276-.978-.489-1.434a1,1,0,0,0-1.261-.529,1.626,1.626,0,0,0-.713.519,2.365,2.365,0,0,0-.3,1.53,2.927,2.927,0,0,0,.737,1.684c.171.2.824.807.358,1.035-.276.128-.874-.09-1.163-.125a6.006,6.006,0,0,1-1.264-.25,4.349,4.349,0,0,1-1.4-.862c-1.251-1.091-2.564-2.559-4.348-2.635a1.132,1.132,0,0,0-.781.2.964.964,0,0,0-.294.835,1.973,1.973,0,0,0,.355.7,1.9,1.9,0,0,0-.451.039.957.957,0,0,0-.66.572,1.011,1.011,0,0,0-.878.143C-481.694,304.469-481.108,305.531-480.43,306.153Z" transform="translate(481.398 -300.201)"/><path class="c" d="M-459.137,316.8a13.861,13.861,0,0,1-4.008-1.28c-.721-.331-1.417-.724-2.1-1.1-.55-.307-1.117-.623-1.692-.905a18.091,18.091,0,0,1-1.6-.906,1.547,1.547,0,0,0-.862-.232,5.5,5.5,0,0,0-1.25.21,5.843,5.843,0,0,1-1.156.209c-.1,0-.206.006-.315.006h0a9.856,9.856,0,0,1-4.888-1.443,5.692,5.692,0,0,1-2.03-2.651,10.418,10.418,0,0,0-.88-1.562c-.06-.078-.133-.164-.205-.244a1.8,1.8,0,0,1-.453-.695,2.437,2.437,0,0,1-.843-1.633,1.173,1.173,0,0,1,.478-.91,1.082,1.082,0,0,1,.888-.19,1.069,1.069,0,0,1,.7-.553,1.7,1.7,0,0,1,.232-.037,2.091,2.091,0,0,1-.234-.542,1.1,1.1,0,0,1,.343-.971,1.2,1.2,0,0,1,.781-.234h.09c1.557.068,2.78,1.18,3.855,2.157.195.175.386.344.572.513a4.309,4.309,0,0,0,1.354.838,5.416,5.416,0,0,0,1.154.231l.083.011c.086.01.2.038.322.065a1.617,1.617,0,0,0,.763.068c.077-.034.087-.074.087-.087.03-.168-.27-.494-.4-.636-.035-.037-.067-.072-.085-.094a3,3,0,0,1-.766-1.765,2.469,2.469,0,0,1,.321-1.624,1.756,1.756,0,0,1,.776-.564,1.141,1.141,0,0,1,1.423.6,4.83,4.83,0,0,1,.265.764,5.843,5.843,0,0,0,.227.675,2.777,2.777,0,0,0,.978,1.144,2.606,2.606,0,0,1,1.291,1.742,2.757,2.757,0,0,1-.432,1.936,7.736,7.736,0,0,1,1.484.435l.038.012c.292.1.589.205.883.308.785.273,1.595.554,2.371.9a17.047,17.047,0,0,1,2.329,1.257,7.43,7.43,0,0,0,4.726-1.292.632.632,0,0,1,.405-.123,2.466,2.466,0,0,1,1.272.523,5.494,5.494,0,0,1,1.122,1.339,10.261,10.261,0,0,1,1.382,3.252c.012.048.025.1.041.158a1.149,1.149,0,0,1,.028.917,1.223,1.223,0,0,1-.683.408c-.081.031-.157.054-.218.081a19.4,19.4,0,0,1-3.824,1.2,15.258,15.258,0,0,1-3.084.385A9.144,9.144,0,0,1-459.137,316.8Zm-19.014-15.4h-.075a.956.956,0,0,0-.61.182.811.811,0,0,0-.252.689,1.785,1.785,0,0,0,.33.655.134.134,0,0,1,.01.144.131.131,0,0,1-.121.071,1.663,1.663,0,0,0-.419.038.807.807,0,0,0-.565.495.134.134,0,0,1-.151.079.848.848,0,0,0-.767.119.9.9,0,0,0-.376.708,2.158,2.158,0,0,0,.789,1.458.116.116,0,0,1,.041.074,1.42,1.42,0,0,0,.392.607c.084.09.16.181.224.264a10.632,10.632,0,0,1,.9,1.6,5.455,5.455,0,0,0,1.924,2.54,9.372,9.372,0,0,0,5.059,1.4,5.984,5.984,0,0,0,1.105-.2,5.6,5.6,0,0,1,1.312-.218,1.816,1.816,0,0,1,1.007.274,15.618,15.618,0,0,0,1.575.889c.581.29,1.151.606,1.7.913.672.379,1.368.767,2.082,1.092a13.568,13.568,0,0,0,3.926,1.259,9.136,9.136,0,0,0,1.028.06,14.857,14.857,0,0,0,3.03-.382,18.894,18.894,0,0,0,3.769-1.181c.07-.029.156-.055.241-.084a1.11,1.11,0,0,0,.546-.3c.1-.156.009-.47-.06-.7-.016-.06-.036-.115-.051-.169a9.874,9.874,0,0,0-1.346-3.17,5.193,5.193,0,0,0-1.06-1.278,2.208,2.208,0,0,0-1.105-.463.382.382,0,0,0-.239.066,7.716,7.716,0,0,1-4.928,1.347.127.127,0,0,1-.068-.018A17.018,17.018,0,0,0-461.675,309c-.773-.341-1.579-.62-2.354-.891-.3-.1-.593-.2-.888-.312l-.034-.01a6.644,6.644,0,0,0-1.671-.451.138.138,0,0,1-.114-.088.139.139,0,0,1,.03-.137,2.411,2.411,0,0,0,.523-1.908,2.368,2.368,0,0,0-1.184-1.564,3,3,0,0,1-1.064-1.257,4.66,4.66,0,0,1-.236-.707,4.967,4.967,0,0,0-.248-.719.875.875,0,0,0-1.1-.46,1.486,1.486,0,0,0-.648.468,2.235,2.235,0,0,0-.268,1.442,2.773,2.773,0,0,0,.7,1.61c.025.026.052.058.083.092.263.286.513.592.468.869a.4.4,0,0,1-.236.276,1.7,1.7,0,0,1-.945-.048c-.108-.025-.213-.052-.291-.062l-.083-.01a5.721,5.721,0,0,1-1.211-.246,4.574,4.574,0,0,1-1.444-.89" transform="translate(481.418 -300.182)"/></g><g transform="translate(0.75 2.162)"><path class="c" d="M-458.435,310.169a7.21,7.21,0,0,1,1.846.96,11.935,11.935,0,0,1,1.554,1.52c.037.033-.01.082-.049.057-.523-.371-.94-.859-1.451-1.241-.618-.456-1.3-.779-1.944-1.189C-458.54,310.237-458.5,310.146-458.435,310.169Z" transform="translate(477.777 -303.604)"/><path class="c" d="M-470.469,314.245A7.754,7.754,0,0,0-467,312.574c.038-.037.088.021.066.06a4.14,4.14,0,0,1-3.523,1.688C-470.5,314.318-470.5,314.258-470.469,314.245Z" transform="translate(479.289 -303.906)"/><path class="c" d="M-473.111,311.206a6.108,6.108,0,0,1,2.35-1.163c.73-.107,1.481.445,2.131.682.058.021.052.129-.018.111a8.373,8.373,0,0,0-2.053-.512,3.389,3.389,0,0,0-1.2.523,5.877,5.877,0,0,1-1.157.454C-473.111,311.318-473.153,311.235-473.111,311.206Z" transform="translate(479.621 -303.586)"/><path class="c" d="M-469.211,303.982c-.012-.019.017-.038.036-.019.226.266,1.133.864,1.068,1.322a1.534,1.534,0,0,1-.2.555c-.394.707-.084,1.254.325,1.831.037.055-.019.143-.083.086a1.846,1.846,0,0,1-.7-1.518c.019-.485.7-.764.211-1.366A6.541,6.541,0,0,1-469.211,303.982Z" transform="translate(479.128 -302.82)"/><path class="c" d="M-468.516,308.563c.04-.036.1.023.073.068-.115.171-.184.369-.308.535-.045.055-.157.021-.143-.059A.926.926,0,0,1-468.516,308.563Z" transform="translate(479.087 -303.4)"/><path class="c" d="M-478.821,302.675a2.737,2.737,0,0,0,1.692,1.1,3.439,3.439,0,0,1,1.366.724,15.691,15.691,0,0,0,1.384,1.51,3.415,3.415,0,0,0,1.965.705.909.909,0,0,0,.3-.075c.039-.031.086.03.051.065-.464.463-.96.892-1.375,1.4-.385.467-.594,1.034-.961,1.5a.075.075,0,0,1-.13-.07,3.576,3.576,0,0,1,.565-1.224,2.352,2.352,0,0,1-1.756-.551c-.06-.043-.028-.138.047-.113a4.635,4.635,0,0,0,1.837.5,6.528,6.528,0,0,1,1.252-1.158,2.737,2.737,0,0,1-1.392-.452,4.113,4.113,0,0,1-1.568-1.373,4.9,4.9,0,0,0-2.493-1.4,1.154,1.154,0,0,1-.845-1.065C-478.878,302.646-478.837,302.649-478.821,302.675Z" transform="translate(480.348 -302.656)"/><path class="c" d="M-480.534,306.78c.21-.791,1.037-.893,1.715-.682a3.359,3.359,0,0,1,1.83,2.077c.322.741.372,1.343,1.317,1.463a1.1,1.1,0,0,1,.871.5c.024.045-.037.09-.079.062q-.028-.024-.05-.039c-.018-.016-.021-.052.005-.052-.3,0-.552-.205-.883-.174a1.316,1.316,0,0,1-.366,0,.856.856,0,0,1-.487-.318,10.371,10.371,0,0,1-.966-2.082,2.506,2.506,0,0,0-1.121-1.1c-.492-.242-1.98-.139-1.247.928.209.3.518.517.739.809a2.314,2.314,0,0,1,.37.81c.041.132-.141.15-.2.052a6.4,6.4,0,0,0-1.05-1.316A1.121,1.121,0,0,1-480.534,306.78Z" transform="translate(480.558 -303.078)"/><path class="c" d="M-480.547,304.137c2.114-.4,2.8,2.4,4.173,3.43.022.024.019.076-.02.067-.682-.167-1.153-.965-1.531-1.5-.634-.887-1.347-2.05-2.61-1.954C-480.557,304.184-480.569,304.144-480.547,304.137Z" transform="translate(480.559 -302.838)"/></g></g><g transform="translate(-457.018 289.495)"><g transform="translate(15.447 0)"><path class="b" d="M-433.089,299.9c1.429,1.508,3.1,4.055,5.568,3.376,1.43-.391,1.236-1.541.586-2.66a3.012,3.012,0,0,0-.3-.626,7.513,7.513,0,0,1,.612-1.513.112.112,0,0,0,.01-.068c.086-.045.039-.191-.059-.209-.415-.075-.786-.3-1.2-.41-.308-.081-.62-.155-.932-.221a8.906,8.906,0,0,0-2.632-.221c-.359.043-1.054-.038-1.22.39a.6.6,0,0,0-.029.084c-.005.014-.017.025-.02.043-.024.086-.051.178-.072.26,0,.01,0,.013-.008.018-.148.529-.3,1.063-.416,1.6A.132.132,0,0,0-433.089,299.9Z" transform="translate(433.334 -297.185)"/><path class="c" d="M-432.521,300.733c-.231-.263-.45-.512-.661-.738a.244.244,0,0,1-.127-.1.265.265,0,0,1-.039-.2c.116-.534.266-1.067.411-1.587l.015-.035.071-.268a.144.144,0,0,1,.027-.059l0-.018c.005-.021.012-.041.017-.06.17-.424.705-.445,1.1-.458.088-.005.167-.008.238-.013a8.937,8.937,0,0,1,2.674.221c.3.063.607.134.932.221a4.053,4.053,0,0,1,.542.2,3.207,3.207,0,0,0,.645.211.263.263,0,0,1,.211.224.219.219,0,0,1-.039.184.3.3,0,0,1-.025.066,7.626,7.626,0,0,0-.584,1.43,2.786,2.786,0,0,1,.272.578,2.391,2.391,0,0,1,.42,2.037,1.511,1.511,0,0,1-1.084.825,3.354,3.354,0,0,1-.848.118h0C-430.085,303.5-431.379,302.03-432.521,300.733Zm5.1-2.652a3.418,3.418,0,0,0-.51-.186c-.326-.082-.622-.154-.918-.219a8.576,8.576,0,0,0-2.6-.213c-.071.008-.155.01-.251.013-.338.01-.755.026-.858.288,0,.011-.008.022-.011.032a.15.15,0,0,1-.013.049c0,.013-.01.02-.019.028l-.076.277,0,.031c-.147.513-.3,1.041-.416,1.563a.126.126,0,0,1,.077.043c.225.237.45.495.693.77,1.1,1.254,2.355,2.676,3.969,2.676a2.853,2.853,0,0,0,.777-.108,1.24,1.24,0,0,0,.905-.665,2.209,2.209,0,0,0-.41-1.825,2.879,2.879,0,0,0-.29-.6.121.121,0,0,1-.016-.112,7.379,7.379,0,0,1,.618-1.525.125.125,0,0,1,.031-.1A3.341,3.341,0,0,1-427.417,298.081Z" transform="translate(433.354 -297.166)"/><path class="m" d="M-433.089,299.9c1.429,1.508,3.1,4.055,5.568,3.376,1.43-.391,1.236-1.541.586-2.66a3.012,3.012,0,0,0-.3-.626,7.513,7.513,0,0,1,.612-1.513.112.112,0,0,0,.01-.068c.086-.045.039-.191-.059-.209-.415-.075-.786-.3-1.2-.41-.308-.081-.62-.155-.932-.221a8.906,8.906,0,0,0-2.632-.221c-.359.043-1.054-.038-1.22.39a.6.6,0,0,0-.029.084c-.005.014-.017.025-.02.043-.024.086-.051.178-.072.26,0,.01,0,.013-.008.018-.148.529-.3,1.063-.416,1.6A.132.132,0,0,0-433.089,299.9Z" transform="translate(433.334 -297.185)"/></g><g transform="translate(0 0.875)"><path class="n" d="M-449.369,312.173a16.789,16.789,0,0,0,1.769,2.57,2.483,2.483,0,0,0,1.692,1.018,1.245,1.245,0,0,0,1.254-1.051c.008-.094.016-.19.024-.289a4.726,4.726,0,0,0,.555-.343,16.907,16.907,0,0,0-1.026,4.568,26,26,0,0,0-.223,4.337,1.522,1.522,0,0,0-.523.339,1.911,1.911,0,0,0-.438,1.471,4.7,4.7,0,0,0,1.605,2.979,17.2,17.2,0,0,0,7.588,3.631c3.162.77,6.52,1.405,9.772.835,2.617-.465,5.535-.986,7.752-2.54.674-.47,1.819-1.258,1.942-2.157a1.19,1.19,0,0,0-.292-1.053c-.233-.2-.627-.336-.687-.681a7.378,7.378,0,0,1-.081-1.124,36.818,36.818,0,0,0-.986-8.206c-.224-.935-.464-1.882-.746-2.822a14.726,14.726,0,0,0,2.208-2.726c.607-.9,1.531-2.031,1.526-3.186a1.545,1.545,0,0,0-1.113-1.668,1.429,1.429,0,0,0-.672.12c-.419.139-.814-.193-1.11-.43a11.289,11.289,0,0,1-1.43-1.374,27.6,27.6,0,0,0-2.268-2.45,6.589,6.589,0,0,0-2.918-1.66,3.9,3.9,0,0,0-1.817.066,2.579,2.579,0,0,0-.128-.239c-.192-.335-.587-.924-1.059-.716s-.38,1.138-.273,1.528c.1.347.341.8.092,1.15-.344.487-.964.422-1.492.347a4.515,4.515,0,0,1-2.728-1.728c-.405-.434-.806-.867-1.187-1.316a3.249,3.249,0,0,0-.974-.963,1.032,1.032,0,0,0-1.221.3,4.555,4.555,0,0,0-.407.947,3.423,3.423,0,0,0-.7.076c-.759.171-1.54.366-2.288.593a9.071,9.071,0,0,0-3.841,2.847,14.477,14.477,0,0,1-2.06,1.887c-.695.488-1.434.9-2.13,1.384a2.259,2.259,0,0,0-.256.2,1.8,1.8,0,0,0-1.993.821C-451.373,309.109-450.154,310.8-449.369,312.173Z" transform="translate(451.011 -298.187)"/><path class="o" d="M-437.143,331.511a17.173,17.173,0,0,1-7.65-3.658,4.917,4.917,0,0,1-1.645-3.077,2.05,2.05,0,0,1,.473-1.569,1.869,1.869,0,0,1,.479-.333,24.008,24.008,0,0,1,.206-3.967l.026-.292a17.452,17.452,0,0,1,.884-4.218c-.052.031-.1.065-.154.09l-.02.215a1.389,1.389,0,0,1-1.32,1.177h-.074a2.6,2.6,0,0,1-1.785-1.069,17.113,17.113,0,0,1-1.783-2.589c-.092-.156-.19-.318-.287-.487-.744-1.26-1.67-2.827-1.017-4.348a1.923,1.923,0,0,1,1.7-.965,1.544,1.544,0,0,1,.392.045c.069-.054.139-.108.207-.158.349-.235.7-.461,1.05-.679s.731-.456,1.084-.7a13.516,13.516,0,0,0,1.911-1.74l.312-.325a8.759,8.759,0,0,1,3.713-2.689c.7-.211,1.476-.417,2.3-.6a3.352,3.352,0,0,1,.641-.076l.037-.1a3.406,3.406,0,0,1,.354-.8,1.1,1.1,0,0,1,.913-.439,1.237,1.237,0,0,1,.471.1,2.426,2.426,0,0,1,.823.755,2.712,2.712,0,0,0,.195.245c.378.445.775.875,1.184,1.311a4.4,4.4,0,0,0,2.659,1.693,4.4,4.4,0,0,0,.551.049.921.921,0,0,0,.813-.346c.156-.222.052-.525-.046-.814-.024-.075-.051-.149-.073-.218-.107-.381-.252-1.422.349-1.686a.637.637,0,0,1,.254-.055c.492,0,.856.62.974.823.025.048.054.1.079.145a3.356,3.356,0,0,1,.905-.112,4.634,4.634,0,0,1,.871.083,6.748,6.748,0,0,1,2.98,1.684,16.845,16.845,0,0,1,1.7,1.8c.191.222.384.446.579.66a11.166,11.166,0,0,0,1.416,1.362l.034.026c.272.218.628.485.945.376l.056-.014a1.48,1.48,0,0,1,.695-.108,1.653,1.653,0,0,1,1.218,1.8,5.532,5.532,0,0,1-1.293,2.889c-.091.129-.175.255-.26.377a15.668,15.668,0,0,1-2.165,2.689c.294.989.539,1.987.726,2.753a37.473,37.473,0,0,1,.986,8.231,7.013,7.013,0,0,0,.084,1.1c.031.2.212.314.405.434.076.055.162.112.232.17a1.3,1.3,0,0,1,.343,1.174c-.132.944-1.278,1.748-1.964,2.225l-.034.026c-2.251,1.576-5.2,2.1-7.807,2.558a15.4,15.4,0,0,1-2.67.22A31.042,31.042,0,0,1-437.143,331.511Zm18.75-25.226-.058.016a.8.8,0,0,1-.239.039,1.633,1.633,0,0,1-.953-.458l-.037-.031a11.984,11.984,0,0,1-1.452-1.389c-.194-.218-.387-.44-.579-.669a17.844,17.844,0,0,0-1.676-1.775,6.534,6.534,0,0,0-2.855-1.624,4.556,4.556,0,0,0-.819-.073,2.931,2.931,0,0,0-.93.13.132.132,0,0,1-.164-.068c-.038-.08-.078-.156-.121-.231-.326-.558-.613-.779-.887-.656-.391.171-.3,1.01-.2,1.367.017.062.042.136.069.208a1.13,1.13,0,0,1,.005,1.054,1.163,1.163,0,0,1-1.027.46,4.456,4.456,0,0,1-.594-.052,4.641,4.641,0,0,1-2.812-1.776c-.408-.438-.809-.869-1.189-1.314-.074-.082-.141-.17-.211-.26a2.066,2.066,0,0,0-.718-.672.941.941,0,0,0-.359-.073.85.85,0,0,0-.7.318,3.582,3.582,0,0,0-.32.739c-.024.062-.047.127-.067.184a.127.127,0,0,1-.122.089,3.277,3.277,0,0,0-.677.069c-.817.181-1.582.378-2.276.594a8.524,8.524,0,0,0-3.6,2.615l-.312.329a13.435,13.435,0,0,1-1.953,1.775c-.357.249-.733.481-1.092.71-.343.216-.7.437-1.038.671a2.25,2.25,0,0,0-.245.19.155.155,0,0,1-.13.026,1.235,1.235,0,0,0-.38-.055,1.656,1.656,0,0,0-1.447.8c-.6,1.4.247,2.836,1,4.1.1.17.2.335.288.492a16.876,16.876,0,0,0,1.76,2.552,2.315,2.315,0,0,0,1.6.971,1.107,1.107,0,0,0,1.111-.933l.024-.281a.138.138,0,0,1,.072-.11,4.423,4.423,0,0,0,.542-.335.135.135,0,0,1,.161.007.127.127,0,0,1,.039.154,16.349,16.349,0,0,0-1.016,4.528l-.029.3a23.747,23.747,0,0,0-.195,4.014.138.138,0,0,1-.084.135,1.378,1.378,0,0,0-.48.31,1.8,1.8,0,0,0-.4,1.363,4.694,4.694,0,0,0,1.555,2.892,16.91,16.91,0,0,0,7.532,3.6,30.644,30.644,0,0,0,7.1,1.051,15.665,15.665,0,0,0,2.623-.218c2.573-.455,5.494-.974,7.7-2.514l.035-.025c.655-.456,1.737-1.216,1.849-2.043a1.077,1.077,0,0,0-.246-.932,1.81,1.81,0,0,0-.206-.148.954.954,0,0,1-.523-.615,6.9,6.9,0,0,1-.083-1.142,37.343,37.343,0,0,0-.981-8.171c-.191-.783-.442-1.815-.75-2.818a.148.148,0,0,1,.037-.141,14.849,14.849,0,0,0,2.191-2.7c.083-.118.17-.245.261-.378a5.24,5.24,0,0,0,1.24-2.735c0-.312-.075-1.342-1-1.54a.253.253,0,0,0-.079-.009A1.59,1.59,0,0,0-418.393,306.285Z" transform="translate(451.03 -298.167)"/></g></g><g transform="translate(-427.271 293.113)"><path class="b" d="M-416.486,311.221c.169-.292.351-.58.547-.855a14.243,14.243,0,0,1,2.115-2.1,4.18,4.18,0,0,0,.463.459c.115.078.232.153.344.234.364.272.725.551,1.1.814.405.289.83.559,1.25.831.052-.035.1-.069.149-.107a7.6,7.6,0,0,0,1.126-1.123,4.885,4.885,0,0,1,.246-2.89c.293-.79.715-1.519.985-2.319a9.442,9.442,0,0,0,.323-1.3c.031-.172.031-.541.177-.672.474-.419,1.114,0,1.606.51a3.23,3.23,0,0,1,1.139-.916,3.588,3.588,0,0,1,2.493-.17,1.564,1.564,0,0,1,.986,1.914,3.572,3.572,0,0,1,1.492.127,1.621,1.621,0,0,1,.82,1.44,2.221,2.221,0,0,1-.1.865,1.275,1.275,0,0,1,.859,1.494,2.34,2.34,0,0,1-.142.538,1,1,0,0,1,.292.025c.6.148.333.886.145,1.243a4.184,4.184,0,0,1-1.663,1.755,1.189,1.189,0,0,1-1.041-.052,3.218,3.218,0,0,1-2.242,2.475,3.146,3.146,0,0,1-2.33-.594,23.273,23.273,0,0,1-2.967,3.937,3.244,3.244,0,0,1-3.9.985,9.245,9.245,0,0,1-1.91-1.278c-.537-.433-1.088-.846-1.647-1.243a18.5,18.5,0,0,0-1.008-2.982c-.02-.071-.035-.141-.048-.211A7.99,7.99,0,0,0-416.486,311.221Z" transform="translate(416.969 -301.326)"/><path class="c" d="M-412.3,317.863a9.26,9.26,0,0,1-1.936-1.3c-.487-.39-1.008-.779-1.645-1.238a.149.149,0,0,1-.049-.08,17.479,17.479,0,0,0-.911-2.725l-.1-.25c-.017-.073-.031-.145-.05-.216a.135.135,0,0,1,.014-.087c.12-.255.245-.53.351-.831.158-.275.343-.562.558-.876a14.68,14.68,0,0,1,2.134-2.121.137.137,0,0,1,.19.013,4.068,4.068,0,0,0,.43.44l.091.058c.087.062.173.116.256.179.155.107.3.221.452.334.216.158.43.322.653.481.344.239.705.476,1.055.7l.114.074c.024-.018.045-.037.071-.054a7.138,7.138,0,0,0,1.056-1.049,5.182,5.182,0,0,1,.272-2.9c.139-.369.3-.728.467-1.077a13.318,13.318,0,0,0,.516-1.239,9.379,9.379,0,0,0,.32-1.283c0-.038.013-.089.013-.141a.968.968,0,0,1,.2-.606c.424-.376,1.02-.232,1.686.408a3.561,3.561,0,0,1,1.09-.84,3.754,3.754,0,0,1,1.6-.329,2.861,2.861,0,0,1,1,.156,1.629,1.629,0,0,1,1.089,1.894,3.414,3.414,0,0,1,1.392.147c.712.266.869,1.173.905,1.555a2.17,2.17,0,0,1-.078.794,1.424,1.424,0,0,1,.829,1.6,2.55,2.55,0,0,1-.083.391.762.762,0,0,1,.136.024.594.594,0,0,1,.418.325,1.459,1.459,0,0,1-.187,1.1,4.31,4.31,0,0,1-1.728,1.818,1.266,1.266,0,0,1-1,.009,3.32,3.32,0,0,1-2.3,2.425,3.271,3.271,0,0,1-2.317-.537,23.333,23.333,0,0,1-2.915,3.839,3.655,3.655,0,0,1-2.673,1.326h0A3.405,3.405,0,0,1-412.3,317.863Zm7-5.155a3.055,3.055,0,0,0,2.221.575,3.08,3.08,0,0,0,2.137-2.374.136.136,0,0,1,.074-.093.116.116,0,0,1,.114,0,1.071,1.071,0,0,0,.93.054,4.094,4.094,0,0,0,1.6-1.7,1.216,1.216,0,0,0,.179-.875.316.316,0,0,0-.237-.172.82.82,0,0,0-.25-.02.133.133,0,0,1-.118-.053.152.152,0,0,1-.017-.129,2.473,2.473,0,0,0,.135-.509,1.15,1.15,0,0,0-.765-1.347.126.126,0,0,1-.083-.065.158.158,0,0,1-.011-.1,1.953,1.953,0,0,0,.1-.814c-.027-.325-.159-1.116-.73-1.326a3.358,3.358,0,0,0-1.438-.119.118.118,0,0,1-.1-.04.129.129,0,0,1-.036-.108c.116-.952-.161-1.5-.9-1.776a2.656,2.656,0,0,0-.911-.14,3.514,3.514,0,0,0-1.474.3,3.111,3.111,0,0,0-1.095.879.136.136,0,0,1-.1.047.125.125,0,0,1-.1-.035c-.591-.608-1.081-.8-1.419-.5a.9.9,0,0,0-.114.438c-.007.061-.017.115-.021.161a9.73,9.73,0,0,1-.328,1.319,13.037,13.037,0,0,1-.53,1.264c-.159.346-.322.7-.456,1.059a4.855,4.855,0,0,0-.246,2.806.112.112,0,0,1-.025.124,7.606,7.606,0,0,1-1.14,1.141c-.034.024-.067.051-.1.073l-.054.038a.134.134,0,0,1-.153.005l-.188-.121c-.351-.229-.718-.466-1.07-.713-.22-.152-.437-.321-.655-.487-.151-.107-.3-.218-.45-.328a2.886,2.886,0,0,0-.248-.17l-.1-.073a3.665,3.665,0,0,1-.392-.377,14.738,14.738,0,0,0-1.988,1.995c-.211.3-.38.578-.529.828a7.537,7.537,0,0,1-.338.791c.015.057.026.107.034.149l.093.233a17.743,17.743,0,0,1,.911,2.717c.621.446,1.134.835,1.613,1.223a9.289,9.289,0,0,0,1.88,1.257,3.107,3.107,0,0,0,1.264.287h0a3.413,3.413,0,0,0,2.481-1.244,23.132,23.132,0,0,0,2.951-3.909.12.12,0,0,1,.091-.065c.009,0,.018-.005.024-.005A.137.137,0,0,1-405.294,312.709Z" transform="translate(416.988 -301.307)"/><path class="m" d="M-415.864,316.3a1.72,1.72,0,0,0,.156.149c.625.53,1.361.911,2.014,1.41a13,13,0,0,0,2.026,1.379,4.817,4.817,0,0,0,1.9.51,2.966,2.966,0,0,1-2.33-.114,9.245,9.245,0,0,1-1.91-1.278c-.537-.433-1.088-.846-1.647-1.243C-415.711,316.837-415.783,316.565-415.864,316.3Z" transform="translate(416.847 -303.198)"/><path class="m" d="M-404.819,314.845a2.957,2.957,0,0,0-.119-1.939l.044-.01a3.277,3.277,0,0,0,.731.877,6.857,6.857,0,0,0,1.153.957,3.386,3.386,0,0,1-.856-.447c-.374.614-.765,1.2-1.181,1.773.026-.123.058-.243.08-.365A4.248,4.248,0,0,0-404.819,314.845Z" transform="translate(415.482 -302.769)"/><path class="c" d="M-411.708,313.526c1.146-.867,1.7-2.3,2.878-3.129a2.584,2.584,0,0,1-.062-1.574c.013-.042.074-.025.072.017a4.759,4.759,0,0,0,.815,2.587.067.067,0,0,1-.1.082,2.434,2.434,0,0,1-.678-.989c-.406.588-.98,1.079-1.4,1.68a3.2,3.2,0,0,1-1.47,1.409C-411.7,313.627-411.754,313.562-411.708,313.526Z" transform="translate(416.324 -302.252)"/><path class="c" d="M-404.779,312.983a4.813,4.813,0,0,0,.989,1.114,6.034,6.034,0,0,0,1.265.689c.046.021.068.112,0,.119a2,2,0,0,1-1.382-.621,2.842,2.842,0,0,1-.958-1.276C-404.888,312.945-404.807,312.942-404.779,312.983Z" transform="translate(415.46 -302.777)"/><path class="c" d="M-405.876,302.056c1.631-.2,1.994,2.053,1.889,3.221-.058.665-.338,1.243-.01,1.913a2.69,2.69,0,0,1,.279,1.138,3.053,3.053,0,0,1-.776,2.18c-.055.059-.161-.039-.112-.1a3.251,3.251,0,0,0,.578-2.118c-.017-.684-.651-1.322-.48-2,.4-1.595.519-3.578-1.368-4.169A.03.03,0,0,1-405.876,302.056Z" transform="translate(415.589 -301.4)"/><path class="c" d="M-403.286,307.848a1.115,1.115,0,0,0,1.015,1.189c.07.794.729.976,1.41.876-.031.7.642.878,1.3.833l.005.011c.591,1.116,2.019.613,2.645-.213a3.552,3.552,0,0,0,.881-1.9c.016-.406-.331-.56-.661-.516a3.4,3.4,0,0,0,.106-.466c.006-.029-.052-.052-.064-.024a6.188,6.188,0,0,1-1.2,2.019,2.992,2.992,0,0,1-1.1.7c-.328.115-1.752.42-1.571-.471v-.038a2.95,2.95,0,0,0,.91-.419,5.8,5.8,0,0,0,1.7-2.159,3.241,3.241,0,0,0,.49-1.873c0-.017-.022-.017-.026,0a6.4,6.4,0,0,1-1.43,2.889,3.734,3.734,0,0,1-1.275,1.1c-.534.239-1.717.537-1.78-.384.83-.2,1.4-1.605,1.665-2.279a8.71,8.71,0,0,0,.6-3.619c0-.056-.094-.073-.094-.011a10.192,10.192,0,0,1-.63,3.341,8.023,8.023,0,0,1-.767,1.507,2.474,2.474,0,0,1-.461.587c-.441.346-1.238.292-1.35-.348a9.252,9.252,0,0,1,.4-3.256,1.507,1.507,0,0,0,.03-.26,4.335,4.335,0,0,0,.046-1.714.049.049,0,0,0-.1,0,7.71,7.71,0,0,0-.088.929,1.966,1.966,0,0,0-.488-.646c-.087-.078-.169.052-.117.13a2.05,2.05,0,0,1,.371,1.678c-.062.324-.142.647-.208.972A6.7,6.7,0,0,0-403.286,307.848Zm4.075,2.85a2.5,2.5,0,0,0,.56-.166,3.649,3.649,0,0,0,1.912-2.264C-395.436,309-398.222,312.293-399.212,310.7Z" transform="translate(415.261 -301.509)"/></g><g transform="translate(-456.975 293.062)"><path class="o" d="M-420.522,306.949a9.7,9.7,0,0,1,2.147,2.972c-.081-.325-.161-.648-.255-.964a20.2,20.2,0,0,0-.779-1.958.023.023,0,0,1,.038-.024,7.314,7.314,0,0,1,1.346,3.674c.261.578.5,1.158.718,1.707a7.676,7.676,0,0,1,1.451-2.3,4.336,4.336,0,0,1,2.475-1.566c.038-.005.067.057.024.068-1.9.731-2.837,2.546-3.8,4.183.391,1.026.654,2.091.948,3.147a21.6,21.6,0,0,1,.827,3.545.051.051,0,1,1-.1.013,61.051,61.051,0,0,0-2.006-6.726c-.391-1.037-.888-2.034-1.374-3.028-.472-.974-1.182-1.77-1.737-2.685A.05.05,0,0,1-420.522,306.949Z" transform="translate(447.148 -301.967)"/><path class="o" d="M-444.562,315.648c1.552-.211,2.969-1.665,3.938-2.809a14.422,14.422,0,0,0,2.479-4.066.035.035,0,0,1,.067.013,7.834,7.834,0,0,1-.9,2.1c-.11.217-.234.437-.367.649a17.214,17.214,0,0,0,1.922-1.106c.037-.024.084.028.05.061a6,6,0,0,1-1.039.8,4.563,4.563,0,0,1-1.187.624,16.117,16.117,0,0,1-1.124,1.421,10.727,10.727,0,0,1-2.1,1.838,2.114,2.114,0,0,1-1.743.561C-444.613,315.726-444.611,315.648-444.562,315.648Z" transform="translate(450.176 -302.195)"/><path class="o" d="M-449.788,307.789a2.228,2.228,0,0,1,2.568,1.274c.024.043-.034.071-.068.04a9.121,9.121,0,0,0-.828-.793,2.064,2.064,0,0,0-1.451-.256c-.833.12-1.069.953-1.268,1.634-.027.092-.137.034-.14-.036A1.754,1.754,0,0,1-449.788,307.789Z" transform="translate(450.981 -302.065)"/><path class="o" d="M-415.481,308.8a2.419,2.419,0,0,1,2.146-1.582c.963,0,1.284,1.156,1.167,1.939,0,.018-.036.018-.037,0a5.093,5.093,0,0,0-.252-1.041,1.161,1.161,0,0,0-1.629-.477c-.545.226-.9.838-1.315,1.229C-415.449,308.905-415.5,308.84-415.481,308.8Z" transform="translate(446.502 -302.002)"/><path class="o" d="M-414.969,330.862c.777-.869.684-1.819.777-2.889a.058.058,0,0,1,.115,0,3.084,3.084,0,0,1-.833,2.961C-414.954,330.971-415.009,330.9-414.969,330.862Z" transform="translate(446.439 -304.614)"/><path class="o" d="M-444.6,324.172c.014-.066.122-.045.128.016a17.919,17.919,0,0,0,.184,2.212,5.836,5.836,0,0,0,1.172,2.47.037.037,0,0,1-.052.052,5.548,5.548,0,0,1-1.3-2.242A4.771,4.771,0,0,1-444.6,324.172Z" transform="translate(450.189 -304.136)"/><path class="o" d="M-432.357,302.532a11.759,11.759,0,0,0,3.4,2.074,2.354,2.354,0,0,0,2.31-.338c.666-.507.674-1.215.855-1.957.016-.052.1-.025.1.03a3.069,3.069,0,0,1-.626,1.962,2.305,2.305,0,0,1-1.67.769,4.857,4.857,0,0,1-2.254-.718,7.312,7.312,0,0,1-2.228-1.7C-432.528,302.582-432.435,302.466-432.357,302.532Z" transform="translate(448.648 -301.379)"/><path class="o" d="M-433.682,301.272a3.741,3.741,0,0,1,.468.466c.071.084-.039.225-.126.139a3.031,3.031,0,0,1-.473-.462A.1.1,0,0,1-433.682,301.272Z" transform="translate(448.818 -301.249)"/></g><path class="p" d="M-467.791,300.559a2.659,2.659,0,0,1,.29.216c.058.05.024.162-.053.125a2.632,2.632,0,0,1-.328-.193A.087.087,0,1,1-467.791,300.559Z" transform="translate(-3.856 -8.098)"/><path class="p" d="M-415.753,306.783c.274.163.514.463.849.486a.078.078,0,0,1,.016.151,1.016,1.016,0,0,1-.984-.536C-415.924,306.806-415.822,306.746-415.753,306.783Z" transform="translate(-10.422 -8.884)"/><path class="p" d="M-418.186,332.38c.116-.126.237-.251.361-.372.083-.079.205.065.125.145-.125.123-.249.246-.372.359C-418.154,332.585-418.254,332.457-418.186,332.38Z" transform="translate(-10.129 -12.065)"/><path class="p" d="M-413.74,357.707a3.777,3.777,0,0,1,.137.632.092.092,0,0,1-.177.05,3.882,3.882,0,0,1-.154-.625C-413.968,357.641-413.779,357.593-413.74,357.707Z" transform="translate(-10.668 -15.302)"/><path class="p" d="M-425.2,356.1a1.157,1.157,0,0,1,.368-.563c.069-.06.179.042.122.107a2.268,2.268,0,0,0-.322.548C-425.083,356.3-425.231,356.195-425.2,356.1Z" transform="translate(-9.246 -15.034)"/><g transform="translate(-498.487 236.364)"><g transform="translate(34.71 14.174)"><path class="q" d="M-457.5,272.553c1.556-1.176,3.188-1.389,4.511,1.045s2.789,2.939,2,1.039a11.96,11.96,0,0,1-.227-9.17c.153,2.445,1.376,3.885,1.53,3.073,1.119-5.828,5.724-10.761,5.724-10.761s-1.16,4.107-.516,3.951a11.029,11.029,0,0,0,8.257-7.338c1.294,3,.074,5.268,1.894,4.028,2.685-1.815,2.421-5.439,2.421-5.439s.916,2.175,4.5,3.179c4.451,1.244,6.171-.449,6.171-.449a2.874,2.874,0,0,1-2.143-2.53c2.358,3.381,6.669,2.575,6.669,2.575s1.575.627,2.608,3.386c.869,2.316.506,4.945,1.348,6.807.373,1.514,2.5,3.321,3.429,5.674a12.72,12.72,0,0,1-.875,10.348c-4.976,8.946-17.414,11.277-23.622,10.831a24.831,24.831,0,0,1-10.928-3.612,17.467,17.467,0,0,1-7.686-9.059C-457.9,282.717-459.561,274.107-457.5,272.553Z" transform="translate(458.713 -252.634)"/><path class="r" d="M-432.312,293.156q-.838,0-1.586-.056a24.921,24.921,0,0,1-11.1-3.669,17.808,17.808,0,0,1-7.7-8.879,3.811,3.811,0,0,1-5.033-1.7c-1.368-2.262-1.387-5.606-.036-6.625h0a3.458,3.458,0,0,1,2.781-.867,3.6,3.6,0,0,1,2.247,2.023,5.278,5.278,0,0,0,1.56,1.962,2.482,2.482,0,0,0-.19-.62,12.212,12.212,0,0,1-.221-9.454.344.344,0,0,1,.381-.192.347.347,0,0,1,.282.32,5.338,5.338,0,0,0,.877,2.834c1.2-5.789,5.586-10.538,5.774-10.738a.348.348,0,0,1,.426-.066.347.347,0,0,1,.165.4,18.225,18.225,0,0,0-.7,3.46,10.758,10.758,0,0,0,7.77-7.028.35.35,0,0,1,.311-.26.344.344,0,0,1,.347.209,10.13,10.13,0,0,1,.741,3.314,3.489,3.489,0,0,0,.131.867c.005-.024.149-.059.505-.3,2.491-1.685,2.274-5.092,2.271-5.126a.35.35,0,0,1,.265-.364.353.353,0,0,1,.4.2c.008.019.916,2.039,4.272,2.98,2.862.8,4.537.336,5.31-.037a3.214,3.214,0,0,1-1.726-2.591.349.349,0,0,1,.236-.346.348.348,0,0,1,.4.13c2.2,3.153,6.278,2.438,6.32,2.432a.338.338,0,0,1,.192.019c.071.028,1.731.717,2.807,3.588a14.438,14.438,0,0,1,.7,3.628,10.515,10.515,0,0,0,.639,3.158,7.9,7.9,0,0,0,1.423,2.4,14.65,14.65,0,0,1,2.012,3.293,12.948,12.948,0,0,1-.895,10.645C-414.534,290.339-425.455,293.156-432.312,293.156Zm-20.176-13.422a.34.34,0,0,1,.14.029.35.35,0,0,1,.193.216,17.269,17.269,0,0,0,7.525,8.861,24.738,24.738,0,0,0,10.781,3.567c6.453.447,18.488-2.019,23.292-10.655a12.473,12.473,0,0,0,.857-10.045,14.185,14.185,0,0,0-1.925-3.137,8.18,8.18,0,0,1-1.52-2.587,10.83,10.83,0,0,1-.676-3.312,13.924,13.924,0,0,0-.661-3.456,5.674,5.674,0,0,0-2.335-3.147,8.193,8.193,0,0,1-4.138-.5l0,.006a.352.352,0,0,1-.093.337c-.077.076-1.916,1.819-6.509.536a8.093,8.093,0,0,1-4.091-2.422,6.256,6.256,0,0,1-2.541,4.637c-.413.282-.851.521-1.217.346-.4-.191-.442-.683-.506-1.43a10.736,10.736,0,0,0-.37-2.218,11.641,11.641,0,0,1-8.172,6.661.463.463,0,0,1-.446-.128c-.107-.111-.4-.412.15-2.747a23.669,23.669,0,0,0-4.652,9.41c-.075.4-.339.536-.564.509-.545-.034-1.11-.952-1.423-2.16a12.183,12.183,0,0,0,.665,7.547c.357.858.329,1.391-.08,1.587-.7.33-1.813-.969-2.547-2.326a2.959,2.959,0,0,0-1.783-1.673,2.786,2.786,0,0,0-2.212.742h0c-.951.717-1.02,3.669.212,5.706a3.151,3.151,0,0,0,4.492,1.278A.353.353,0,0,1-452.488,279.734Zm-5.064-7.231h0Z" transform="translate(458.765 -252.584)"/><g transform="translate(45.579 12.048)"><path class="q" d="M-404.416,266.775s3.521.214,3.59,3.4-1.915,3.189-1.915,3.189c-.927-2.353-3.056-4.159-3.429-5.674A2.11,2.11,0,0,1-404.416,266.775Z" transform="translate(406.549 -266.422)"/><path class="r" d="M-402.8,273.662h-.238l-.086-.221a14.2,14.2,0,0,0-1.923-3.132,8.179,8.179,0,0,1-1.52-2.587l-.041-.168.108-.134a2.457,2.457,0,0,1,2.056-1.045c.209.016,3.835.357,3.908,3.741a3.893,3.893,0,0,1-.873,2.9A2.086,2.086,0,0,1-402.8,273.662Zm-3.041-5.939a9.087,9.087,0,0,0,1.353,2.171,15.672,15.672,0,0,1,1.906,3.035,1.469,1.469,0,0,0,.575-.309,3.118,3.118,0,0,0,.773-2.486c-.061-2.822-3.132-3.052-3.262-3.06l-.015,0A1.672,1.672,0,0,0-405.837,267.723Z" transform="translate(406.604 -266.372)"/></g></g><g transform="translate(37.032 35.936)"><path class="s" d="M-456.108,278.548c0-1.324,2.058-1.571,1.99.21-.014.369.885.777.8,2.138S-456.1,281.875-456.108,278.548Z" transform="translate(456.108 -277.489)"/><path class="t" d="M-455.3,278.593a.921.921,0,0,1,.814-.939,1.2,1.2,0,0,1,.47,1.125c-.014.369.885.777.8,2.138a.765.765,0,0,1-.135.408C-454.085,281.481-455.291,280.7-455.3,278.593Z" transform="translate(456.006 -277.509)"/></g><g transform="translate(73.372 34.451)"><path class="r" d="M-414.476,276.16a1.931,1.931,0,0,1,.285-.1,1.983,1.983,0,0,1,.768-.084,1.432,1.432,0,0,1,.479.128,1.589,1.589,0,0,1,.447.306c.066.062.136.158.185.207a3.007,3.007,0,0,1,.162.271,1.249,1.249,0,0,1,.111.557,2.494,2.494,0,0,1-.036.3,1.866,1.866,0,0,1-.1.273,1.629,1.629,0,0,1-.339.466,2.106,2.106,0,0,1-.218.172c-.08.049-.159.086-.236.131s-.164.056-.245.085-.162.031-.238.047-.155.005-.226.016a1.054,1.054,0,0,1-.205-.008,2.212,2.212,0,0,1-.34-.049c-.183-.053-.294-.079-.294-.079s.1.054.276.137a2.093,2.093,0,0,0,.336.115,1.959,1.959,0,0,0,.467.059c.084-.007.178-.01.271-.023s.19-.043.288-.07.189-.079.288-.128a2.123,2.123,0,0,0,.269-.19,1.721,1.721,0,0,0,.24-.245l.1-.136.089-.161a1.769,1.769,0,0,0,.129-.338,1.7,1.7,0,0,0,.052-.364,1.2,1.2,0,0,0-.038-.367,1.514,1.514,0,0,0-.124-.358,1.948,1.948,0,0,0-.183-.277,2.529,2.529,0,0,0-.246-.253,1.546,1.546,0,0,0-.553-.324,1.4,1.4,0,0,0-.564-.081,1.822,1.822,0,0,0-.8.208A1.381,1.381,0,0,0-414.476,276.16Z" transform="translate(414.521 -275.789)"/></g><g transform="translate(66.354 45.781)"><g transform="translate(0.503 0.386)"><path class="h" d="M-418.777,291.11a2.258,2.258,0,0,1-2-.326,8.507,8.507,0,0,1,1.751-1.171,3.948,3.948,0,0,1,1.243-.416A1.578,1.578,0,0,1-418.777,291.11Z" transform="translate(421.825 -289.197)"/><path class="u" d="M-418.861,289.833c-.738.324-1.215.935-1.1,1.32a2.731,2.731,0,0,1-.82-.37,8.507,8.507,0,0,1,1.751-1.171,3.948,3.948,0,0,1,1.243-.416,3.523,3.523,0,0,1,.024.484A1.512,1.512,0,0,0-418.861,289.833Z" transform="translate(421.825 -289.197)"/><path class="v" d="M-418.222,295.158a2.68,2.68,0,0,1-3.389-.258,2.029,2.029,0,0,1-.365-.588C-419.872,293.552-418.746,294.453-418.222,295.158Z" transform="translate(421.976 -289.806)"/><path class="w" d="M-421.976,294.312a2.029,2.029,0,0,0,.365.588,2.68,2.68,0,0,0,3.389.258C-418.746,294.453-419.872,293.552-421.976,294.312Zm.956-.172a2.608,2.608,0,0,1,2.093.44c.285.265-.06.789-1.174.7S-421.8,294.253-421.02,294.14Z" transform="translate(421.976 -289.806)"/></g><path class="r" d="M-420.006,295.325a2.519,2.519,0,0,1-1.939-.858,2.307,2.307,0,0,1-.567-1.983c.153-.82.814-2.05,3.1-3.237,1.257-.654,2.561-.657,3.172-.01a1.239,1.239,0,0,1,.052,1.564h0a2.338,2.338,0,0,0-.291,1.152,3.369,3.369,0,0,1-.905,2.275,3.838,3.838,0,0,1-2.6,1.1Zm2.432-5.87a3.367,3.367,0,0,0-1.514.412c-1.59.825-2.562,1.8-2.738,2.746a1.61,1.61,0,0,0,.4,1.392,1.814,1.814,0,0,0,1.416.622h.015a3.228,3.228,0,0,0,2.081-.852,2.723,2.723,0,0,0,.737-1.871,2.973,2.973,0,0,1,.388-1.459h0c.128-.215.239-.516.038-.728A1.139,1.139,0,0,0-417.574,289.455Z" transform="translate(422.552 -288.755)"/></g><path class="x" d="M-494.877,245.648c-3.942-.418-3.435-3.987-2.7-5.84.849-2.153-.462-3.016-.462-3.016,5.971-.4,6.986,3.054,7.135,3.819.012.055.015.1.026.155a1.426,1.426,0,0,0-.026-.155,2.34,2.34,0,0,1,1.876-2.911,2.412,2.412,0,0,0,1.243,3.4c1.632.75,3.412-.835,6.363-.337a3.942,3.942,0,0,1,3.286,3.28c.047-1.746,1.626-2.524,1.529-2.086a2.818,2.818,0,0,0,.344,2.274c1.2,1.663,5.54.731,7.036,3.4a7.669,7.669,0,0,1,.55,5.305,3.2,3.2,0,0,0-2.644,1.247c-1.583,1.884-1.231,4.684.128,5.744a21.132,21.132,0,0,0-.68,2.737,6.029,6.029,0,0,1-2.584.888c-2.878.359-4.686-1.8-5.79-1.211-.939.505-.12,1.576-.12,1.576-3.078-.592-1.868-3.077-1.868-3.077-4.5,1.422-10.38-.558-11.28-6.12-.434-2.685,1.437-3.9,1.147-5.449a1.088,1.088,0,0,0-1.519-.973,1.328,1.328,0,0,1,1.908-.66S-492.183,245.934-494.877,245.648Z" transform="translate(498.436 -236.414)"/><path class="y" d="M-480.418,264.219a.285.285,0,0,1-.066-.006,2.833,2.833,0,0,1-2.164-1.365,2.4,2.4,0,0,1-.163-1.547,10.037,10.037,0,0,1-7.462-1.093,7.689,7.689,0,0,1-3.637-5.48,5.826,5.826,0,0,1,.69-3.661,3,3,0,0,0,.459-1.779.94.94,0,0,0-.392-.694.855.855,0,0,0-.655-.019.351.351,0,0,1-.384-.089.349.349,0,0,1-.059-.387,1.723,1.723,0,0,1,1.026-.968,1.486,1.486,0,0,1,.6-.064,3.034,3.034,0,0,0-2.338-1.121h0a3.735,3.735,0,0,1-3.008-1.652c-1.026-1.7-.245-4,.019-4.665.725-1.842-.289-2.567-.333-2.6a.352.352,0,0,1-.14-.381.351.351,0,0,1,.312-.258c4.2-.267,6.073,1.3,6.893,2.613a2.381,2.381,0,0,1,.3-.58,2.953,2.953,0,0,1,1.785-1.119.339.339,0,0,1,.338.138.346.346,0,0,1,.03.364,2.468,2.468,0,0,0-.15,1.72,2.143,2.143,0,0,0,1.229,1.2,3.7,3.7,0,0,0,2.424-.087,9.194,9.194,0,0,1,3.852-.276,4.162,4.162,0,0,1,3.182,2.362,2.583,2.583,0,0,1,1.132-1.2.572.572,0,0,1,.641.01.44.44,0,0,1,.144.447,2.455,2.455,0,0,0,.287,1.992c.445.616,1.517.837,2.654,1.073,1.632.336,3.482.719,4.4,2.366a7.974,7.974,0,0,1,.585,5.552.366.366,0,0,1-.35.271,2.826,2.826,0,0,0-2.366,1.122,4.222,4.222,0,0,0-.942,3.143,3.086,3.086,0,0,0,1.016,2.1.347.347,0,0,1,.118.381,20.9,20.9,0,0,0-.668,2.692.351.351,0,0,1-.152.23,6.4,6.4,0,0,1-2.732.942A7.293,7.293,0,0,1-478.5,263c-.719-.325-1.288-.58-1.631-.4a.43.43,0,0,0-.257.294,1.183,1.183,0,0,0,.25.764.348.348,0,0,1,.018.395A.348.348,0,0,1-480.418,264.219Zm-1.869-3.774a.35.35,0,0,1,.264.12.35.35,0,0,1,.052.38,2.033,2.033,0,0,0-.05,1.595,1.732,1.732,0,0,0,.965.791,1.3,1.3,0,0,1-.016-.58,1.126,1.126,0,0,1,.609-.764c.642-.344,1.388-.01,2.247.378a6.641,6.641,0,0,0,3.665.8,5.808,5.808,0,0,0,2.311-.755,21.683,21.683,0,0,1,.594-2.409,3.857,3.857,0,0,1-1.094-2.419,4.921,4.921,0,0,1,1.1-3.664,3.6,3.6,0,0,1,2.629-1.368,7.143,7.143,0,0,0-.572-4.788c-.765-1.369-2.377-1.7-3.936-2.025-1.272-.263-2.475-.512-3.078-1.347a2.939,2.939,0,0,1-.489-2.039,2.237,2.237,0,0,0-.752,1.656.347.347,0,0,1-.331.338l-.017,0a.35.35,0,0,1-.346-.306,3.569,3.569,0,0,0-3-2.98,8.543,8.543,0,0,0-3.576.268,4.27,4.27,0,0,1-2.875.042,2.807,2.807,0,0,1-1.6-1.615,2.825,2.825,0,0,1-.059-1.532,1.971,1.971,0,0,0-.715.611,2.148,2.148,0,0,0-.259,1.666,1.565,1.565,0,0,1,.031.188.35.35,0,0,1-.3.375.346.346,0,0,1-.392-.27l-.017-.1c-.13-.679-.966-3.629-5.883-3.629l-.176,0a3.056,3.056,0,0,1,.042,2.824,4.914,4.914,0,0,0-.071,4.047,3.078,3.078,0,0,0,2.484,1.319h0c2.937.312,3.2,2.218,3.208,2.3a.349.349,0,0,1-.153.331.347.347,0,0,1-.364.013,1.177,1.177,0,0,0-.821-.1.692.692,0,0,0-.132.056,1.289,1.289,0,0,1,.33.125,1.584,1.584,0,0,1,.746,1.181,3.58,3.58,0,0,1-.512,2.2,5.179,5.179,0,0,0-.634,3.257,7.017,7.017,0,0,0,3.314,5,9.333,9.333,0,0,0,7.516.846A.358.358,0,0,1-482.287,260.445Z" transform="translate(498.487 -236.364)"/><g transform="translate(82.532 28.517)"><path class="s" d="M-402.035,269.8c-.88-1.38-2.456-.966-1.879,1.132S-400.331,272.5-402.035,269.8Z" transform="translate(404.038 -268.998)"/><path class="t" d="M-403.914,270.933c-.391-1.426.216-2.079.917-1.908a1.145,1.145,0,0,1,.1.868c-.253.911.6.611.963,1.37a.888.888,0,0,1-.026.833A1.445,1.445,0,0,1-403.914,270.933Z" transform="translate(404.038 -268.998)"/></g><g transform="translate(57.187 24.055)"><g transform="translate(3.389)"><path class="z" d="M-423,267.994c-.013,2.259-1.408,4.08-3.11,4.065s-3.073-1.846-3.055-4.1,1.4-4.075,3.1-4.065S-422.989,265.737-423,267.994Z" transform="translate(429.164 -263.892)"/><path class="aa" d="M-423.834,269.752c-.106,1.563-1.092,2.774-2.2,2.7s-1.918-1.409-1.815-2.975,1.091-2.768,2.2-2.7S-423.732,268.181-423.834,269.752Z" transform="translate(429 -264.255)"/><path class="ab" d="M-424.266,270.287c-.079,1.156-.807,2.051-1.624,1.993s-1.421-1.036-1.346-2.194.809-2.05,1.627-2S-424.181,269.131-424.266,270.287Z" transform="translate(428.922 -264.421)"/><path class="z" d="M-425.864,268.533c-.122.535-.529.876-.9.755a.97.97,0,0,1-.466-1.181c.12-.531.526-.871.9-.759A.99.99,0,0,1-425.864,268.533Z" transform="translate(428.925 -264.325)"/><path class="ac" d="M-424.389,271.93c-.068.451-.378.773-.7.718a.772.772,0,0,1-.46-.924c.061-.45.372-.773.692-.713S-424.329,271.485-424.389,271.93Z" transform="translate(428.709 -264.789)"/></g><path class="r" d="M-422.086,275.4s-4.528-4.351-10.956-.267A7.238,7.238,0,0,1-422.086,275.4Z" transform="translate(433.042 -265.01)"/></g><g transform="translate(76.156 26.636)"><path class="z" d="M-406.541,269.667c.445,1.856-.246,3.631-1.533,3.962s-2.689-.912-3.126-2.77.241-3.629,1.532-3.958S-406.986,267.806-406.541,269.667Z" transform="translate(411.334 -266.846)"/><path class="aa" d="M-406.809,271.187c.229,1.312-.271,2.5-1.128,2.658s-1.727-.772-1.959-2.084.264-2.5,1.11-2.656C-407.924,268.944-407.049,269.879-406.809,271.187Z" transform="translate(411.16 -267.129)"/><path class="ab" d="M-406.994,271.62c.174.966-.195,1.846-.821,1.967s-1.285-.576-1.458-1.543.2-1.85.828-1.963S-407.167,270.652-406.994,271.62Z" transform="translate(411.079 -267.253)"/><path class="z" d="M-408.632,270.63c.014.466-.221.824-.533.8s-.567-.41-.582-.88.22-.82.528-.8S-408.651,270.163-408.632,270.63Z" transform="translate(411.134 -267.212)"/><path class="ac" d="M-406.738,273.153c.044.384-.124.709-.372.726s-.5-.283-.537-.666.126-.711.378-.725S-406.779,272.77-406.738,273.153Z" transform="translate(410.87 -267.558)"/><path class="r" d="M-404.745,274.667a4.217,4.217,0,0,0-4.371.987C-408.24,273.83-406.379,273.564-404.745,274.667Z" transform="translate(411.054 -267.75)"/></g><g transform="translate(25.719 16.17)"><path class="ad" d="M-467.608,256.523a3.333,3.333,0,0,1,3.972-.968,17.44,17.44,0,0,0-3.587,5.962c-.094.245-.178.495-.257.75C-468.839,261.207-469.191,258.407-467.608,256.523Z" transform="translate(469.004 -254.92)"/><path class="ae" d="M-467.531,262.565a.342.342,0,0,1-.214-.073,3.736,3.736,0,0,1-1.282-2.58,4.917,4.917,0,0,1,1.1-3.663h0a3.657,3.657,0,0,1,4.366-1.07.352.352,0,0,1,.214.246.35.35,0,0,1-.085.315,17.141,17.141,0,0,0-3.515,5.845c-.094.242-.175.486-.251.733a.348.348,0,0,1-.229.23A.358.358,0,0,1-467.531,262.565Zm2.419-6.991a2.887,2.887,0,0,0-2.279,1.122h0a4.219,4.219,0,0,0-.942,3.142,3.429,3.429,0,0,0,.649,1.73c.027-.077.055-.151.084-.228a17.959,17.959,0,0,1,3.293-5.668A3.386,3.386,0,0,0-465.112,255.574Zm-2.546.9h0Z" transform="translate(469.054 -254.869)"/></g><g transform="translate(25.889 3.022)"><path class="x" d="M-467.2,259.619a15.584,15.584,0,0,1,8.863-9.55c-.842-.009-2.677-.306-2.493-.526a4.739,4.739,0,0,1,5.165-1.809c-.551-2.777,1.882-5.468,1.865-3.947s-.071,3.084-.071,3.084,2.675-5.215,10.406-6.366,15.053,1.546,21.051,3.019,5.554-1.449,5.554-1.449c1.572,3.462-1.8,4.069-1.8,4.069,7.377-.759,7.984,4.912,7.984,4.912a4.724,4.724,0,0,0-3.1-1.122,8.414,8.414,0,0,1,4.128,7.868c-.164,4.4-2.63,5.624-2.63,5.624a2.11,2.11,0,0,0-1.754.916c-.842-1.862-.48-4.491-1.348-6.807-1.034-2.759-2.608-3.386-2.608-3.386s-4.311.806-6.669-2.575a2.874,2.874,0,0,0,2.143,2.53s-1.72,1.693-6.171.449c-3.584-1-4.5-3.179-4.5-3.179s.264,3.624-2.421,5.439c-1.82,1.24-.6-1.029-1.894-4.028a11.029,11.029,0,0,1-8.257,7.338c-.645.156.516-3.951.516-3.951s-4.605,4.933-5.724,10.761c-.154.812-1.377-.628-1.53-3.073a11.96,11.96,0,0,0,.227,9.17c.791,1.9-.68,1.4-2-1.039s-2.954-2.221-4.511-1.045c-2.06,1.554-.4,10.164,5.064,7.58a17.467,17.467,0,0,0,7.686,9.059,25.337,25.337,0,0,1-14.007-4.572C-469.043,276.735-469.738,266.574-467.2,259.619Z" transform="translate(468.812 -239.873)"/><path class="y" d="M-446.215,287.882a26.132,26.132,0,0,1-14.067-4.635c-8.8-6.131-10.005-16.37-7.3-23.8h0a16.31,16.31,0,0,1,7.833-9.212c-.656-.1-1.331-.267-1.46-.547a.444.444,0,0,1,.057-.421,5.217,5.217,0,0,1,5.018-2.042,5.124,5.124,0,0,1,1.508-4.068.709.709,0,0,1,.779-.154c.158.08.346.273.341.736-.009.654-.024,1.318-.037,1.863a14.907,14.907,0,0,1,9.973-5.495c6.419-.961,12.488.689,17.843,2.146,1.153.313,2.268.615,3.342.879,2.989.734,4.229.341,4.74-.119a1.137,1.137,0,0,0,.385-.94.352.352,0,0,1,.249-.384.345.345,0,0,1,.414.19,3.369,3.369,0,0,1,.163,3.022,2.61,2.61,0,0,1-.632.778c6.057.185,6.673,5.233,6.679,5.288a.35.35,0,0,1-.177.343.355.355,0,0,1-.385-.031,5.108,5.108,0,0,0-1.463-.812,8.925,8.925,0,0,1,3.059,7.3c-.17,4.557-2.715,5.87-2.823,5.924a.288.288,0,0,1-.195.033,1.791,1.791,0,0,0-1.442.788.384.384,0,0,1-.315.128.349.349,0,0,1-.274-.2,10.978,10.978,0,0,1-.7-3.372,13.925,13.925,0,0,0-.661-3.456,5.674,5.674,0,0,0-2.335-3.147,8.193,8.193,0,0,1-4.138-.5l0,.006a.352.352,0,0,1-.093.337c-.077.076-1.916,1.819-6.509.536a8.093,8.093,0,0,1-4.091-2.422,6.256,6.256,0,0,1-2.541,4.637c-.413.282-.851.521-1.217.346-.4-.191-.442-.683-.506-1.43a10.734,10.734,0,0,0-.37-2.218,11.641,11.641,0,0,1-8.172,6.661.463.463,0,0,1-.446-.128c-.107-.111-.4-.412.15-2.747a23.668,23.668,0,0,0-4.652,9.41c-.075.4-.339.536-.564.509-.545-.034-1.11-.952-1.423-2.16a12.183,12.183,0,0,0,.665,7.547c.357.858.329,1.391-.08,1.587-.7.33-1.813-.969-2.547-2.326a2.959,2.959,0,0,0-1.783-1.673,2.786,2.786,0,0,0-2.212.742c-.952.717-1.021,3.669.211,5.706a3.151,3.151,0,0,0,4.492,1.278.348.348,0,0,1,.289,0,.35.35,0,0,1,.193.216,17.269,17.269,0,0,0,7.525,8.861.347.347,0,0,1,.166.385.347.347,0,0,1-.326.266C-446.07,287.88-446.121,287.882-446.215,287.882Zm-14.127-38.474a10.278,10.278,0,0,0,1.959.261.349.349,0,0,1,.34.289.349.349,0,0,1-.224.387,15.188,15.188,0,0,0-8.655,9.342h0c-2.427,6.652-2.039,16.662,7.039,22.985a25.769,25.769,0,0,0,12.508,4.463,17.842,17.842,0,0,1-6.592-8.194,3.811,3.811,0,0,1-5.033-1.7c-1.368-2.262-1.387-5.606-.035-6.625a3.454,3.454,0,0,1,2.78-.867,3.6,3.6,0,0,1,2.247,2.023,5.278,5.278,0,0,0,1.56,1.962,2.483,2.483,0,0,0-.19-.62,12.212,12.212,0,0,1-.221-9.454.344.344,0,0,1,.381-.192.347.347,0,0,1,.282.32,5.338,5.338,0,0,0,.877,2.834c1.2-5.789,5.586-10.538,5.774-10.738a.348.348,0,0,1,.426-.066.347.347,0,0,1,.165.4,18.224,18.224,0,0,0-.7,3.46,10.758,10.758,0,0,0,7.77-7.028.35.35,0,0,1,.311-.26.344.344,0,0,1,.347.209,10.129,10.129,0,0,1,.741,3.314,3.489,3.489,0,0,0,.131.867c.005-.024.148-.059.505-.3,2.491-1.685,2.274-5.092,2.271-5.126a.35.35,0,0,1,.265-.364.353.353,0,0,1,.4.2c.008.019.916,2.039,4.272,2.98,2.862.8,4.537.336,5.31-.037a3.214,3.214,0,0,1-1.726-2.591.349.349,0,0,1,.236-.346.348.348,0,0,1,.4.13c2.2,3.153,6.278,2.438,6.32,2.432a.338.338,0,0,1,.192.019c.071.028,1.731.717,2.807,3.588a14.44,14.44,0,0,1,.7,3.628,13.579,13.579,0,0,0,.449,2.663,2.391,2.391,0,0,1,1.541-.629c.389-.234,2.227-1.53,2.366-5.287a8,8,0,0,0-3.937-7.542.352.352,0,0,1-.186-.377.349.349,0,0,1,.309-.282,4.7,4.7,0,0,1,2.589.687c-.481-1.469-2.1-4.345-7.408-3.783a.35.35,0,0,1-.381-.3.351.351,0,0,1,.282-.393,2.694,2.694,0,0,0,1.732-1.175,2.09,2.09,0,0,0,.157-1.363,1.83,1.83,0,0,1-.272.309c-.921.842-2.734.944-5.388.292-1.079-.266-2.2-.569-3.358-.885-5.288-1.437-11.281-3.064-17.558-2.129-7.448,1.109-10.122,6.131-10.148,6.181a.348.348,0,0,1-.4.178.349.349,0,0,1-.261-.348s.05-1.565.071-3.078V243.7a4.523,4.523,0,0,0-1.174,3.912.348.348,0,0,1-.115.332.353.353,0,0,1-.347.064A4.3,4.3,0,0,0-460.342,249.408Zm-6.908,10.16h0Zm13.035-15.993Z" transform="translate(468.86 -239.823)"/><g transform="translate(47.646 9.355)"><path class="y" d="M-414.334,250.817a3.1,3.1,0,0,0,.666.322,5.105,5.105,0,0,0,.714.2c.125.027.246.039.37.06s.247.025.369.034.253.017.373.021.25.01.377,0c.247-.01.5-.03.742-.065a6.694,6.694,0,0,0,.733-.125c.128-.023.243-.06.365-.09l.357-.1c.239-.073.476-.16.705-.237l-.216-.142a2.9,2.9,0,0,1-.034.55,3.554,3.554,0,0,1-.126.54c-.038.084-.067.173-.1.258l-.126.248-.15.231a2.434,2.434,0,0,1-.179.218,1.267,1.267,0,0,1-.2.195,1.137,1.137,0,0,1-.22.178c-.077.05-.151.106-.236.153l-.251.13a4.128,4.128,0,0,1-.537.211c-.092.031-.185.045-.279.072l-.284.071c.2-.021.39-.033.583-.065a3.9,3.9,0,0,0,.57-.156l.282-.109c.087-.044.17-.1.261-.149a1.115,1.115,0,0,0,.246-.17,1.6,1.6,0,0,0,.234-.2c.067-.075.141-.144.208-.224l.184-.245c.052-.091.1-.181.147-.271s.085-.187.124-.282a3.3,3.3,0,0,0,.164-.592,3.654,3.654,0,0,0,.046-.621.167.167,0,0,0-.166-.151.109.109,0,0,0-.042.008l-.016,0-.686.227-.346.1c-.117.029-.231.068-.352.092-.234.044-.466.106-.705.137s-.478.066-.717.09c-.122.015-.238.012-.36.023s-.239.01-.361.007-.238,0-.362-.015a3.293,3.293,0,0,1-.357-.031c-.119-.018-.242-.024-.362-.05s-.237-.043-.358-.074-.232-.063-.347-.094A2.9,2.9,0,0,1-414.334,250.817Z" transform="translate(414.334 -250.528)"/><g transform="translate(0.466 2.665)"><path class="y" d="M-413.023,253.578a3.13,3.13,0,0,0,.593.322c.205.1.418.158.631.234s.441.107.662.158.447.06.668.093l.338.041.338.01.676.005a2.809,2.809,0,0,0,.338-.021l.337-.031.678-.067-.157-.261a3.484,3.484,0,0,1-.26.284c-.094.092-.2.174-.3.261s-.206.17-.314.239-.218.151-.336.218-.229.131-.35.188a3.363,3.363,0,0,1-.36.17c-.122.051-.245.1-.374.143l-.38.117c-.129.036-.26.059-.39.09a2.757,2.757,0,0,1-.4.066c-.131.018-.266.037-.4.045l-.4.012a3.158,3.158,0,0,1-.407,0l-.407-.02c-.136-.006-.268-.035-.4-.05l-.408-.052.4.1c.131.031.264.073.4.093l.408.063a2.582,2.582,0,0,0,.411.039l.419.013c.136,0,.273-.014.413-.018a3.027,3.027,0,0,0,.412-.047c.139-.023.279-.038.416-.067l.406-.109c.133-.036.263-.089.4-.135s.257-.112.387-.167a3.141,3.141,0,0,0,.371-.2c.127-.068.239-.146.358-.224s.226-.169.338-.253a4.23,4.23,0,0,0,.315-.283,2.806,2.806,0,0,0,.3-.321.16.16,0,0,0-.027-.229A.154.154,0,0,0-407.8,254h-.016l-.654.077-.329.038c-.11.007-.215.033-.327.033l-.663.016-.329.013-.329-.025c-.221-.019-.444-.013-.662-.048l-.323-.056c-.111-.019-.221-.029-.332-.053-.21-.055-.43-.094-.641-.168A3.907,3.907,0,0,1-413.023,253.578Z" transform="translate(413.801 -253.578)"/></g></g></g><g transform="translate(74.812 20.75)"><path class="x" d="M-408.514,262.623s-.478-2.038-1.867-2.11c-1.818-.1-2.092,2.2-2.092,2.2S-410.419,260.264-408.514,262.623Z" transform="translate(412.822 -260.161)"/><path class="y" d="M-412.523,263.007a.358.358,0,0,1-.14-.029.351.351,0,0,1-.207-.362c.108-.907.762-2.589,2.457-2.5,1.631.086,2.167,2.285,2.189,2.379a.348.348,0,0,1-.186.393.353.353,0,0,1-.425-.093,2.049,2.049,0,0,0-1.543-.9h-.017a2.886,2.886,0,0,0-1.861.987A.349.349,0,0,1-412.523,263.007Z" transform="translate(412.873 -260.11)"/></g><g transform="translate(60.25 18.741)"><path class="x" d="M-423.533,260.5a2.979,2.979,0,0,0-2.9-2.285,2.72,2.72,0,0,0-2.7,2.48s.449-1.25,2.6-1.413A3.176,3.176,0,0,1-423.533,260.5Z" transform="translate(429.487 -257.861)"/><path class="y" d="M-429.189,260.986a.374.374,0,0,1-.081-.009.347.347,0,0,1-.265-.374,3.01,3.01,0,0,1,2.983-2.793h.073a3.352,3.352,0,0,1,3.237,2.563.347.347,0,0,1-.212.395.346.346,0,0,1-.425-.14,2.874,2.874,0,0,0-2.679-1.055c-1.876.142-2.288,1.144-2.3,1.188A.352.352,0,0,1-429.189,260.986Z" transform="translate(429.537 -257.811)"/></g><path class="af" d="M-404.67,275.4a4.089,4.089,0,0,0-4.6,1.609,3.033,3.033,0,0,1,1.977-1.985" transform="translate(487.23 -241.241)"/><path class="ag" d="M-467.608,256.641a4.042,4.042,0,0,1,.426-.435c-.437,1.357-.3,3.037.851,3.371a19.651,19.651,0,0,0-.893,2.058c-.094.245-.178.495-.257.75C-468.839,261.325-469.191,258.525-467.608,256.641Z" transform="translate(494.723 -238.867)"/></g></g></g></svg>