<svg xmlns="http://www.w3.org/2000/svg" xmlns:xlink="http://www.w3.org/1999/xlink" width="78.747" height="78.747" viewBox="0 0 78.747 78.747"><defs><style>.a{fill:#707070;stroke:#707070;}.b{clip-path:url(#a);}.c{fill:#deb09d;}.d{fill:#e2bba1;}.e{fill:#f9cfb3;}.f{fill:#fff;}.g{fill:#1c75bc;}.h{fill:#186ea8;}.i{fill:#594a42;}.j{stroke:none;}.k{fill:none;}</style><clipPath id="a"><circle class="a" cx="39.374" cy="39.374" r="39.374" transform="translate(0 0)"/></clipPath></defs><g class="a"><circle class="j" cx="39.374" cy="39.374" r="39.374"/><circle class="k" cx="39.374" cy="39.374" r="38.874"/></g><g class="b"><g transform="translate(5.813 7.173)"><path class="c" d="M375.386,90.3q2.438,4.171,4.877,8.342c.184.313.86,1.312,1.64,2.5h6.558a87.569,87.569,0,0,1,8.826-10.608c5.176-5.285,10.029-8.615,16.345-12.446-2.381,1.444-4.544.28-7.073.249a7.228,7.228,0,0,1-2.94-.66,10.97,10.97,0,0,1-4.414-2.882c-2.709-3.4-1.578-9.629-1.578-9.629a43.642,43.642,0,0,1-8.381.114c-1.665-.106-3.333-.383-5-.435-.777-.023-2.125-.184-2.807.286-.587.406-.791.577-.822.75a1.923,1.923,0,0,0,.31,1.253c.851,1.36.351,5.239-1.3,7.542-.6.841-2.508,1.972-6.318,4.236-1.418.843-2.864,1.631-3,2.977a2.82,2.82,0,0,0,.509,1.833C372.21,85.882,374.015,87.953,375.386,90.3Z" transform="translate(-354.992 -30.17)"/><path class="d" d="M374.462,40.9a18.147,18.147,0,0,0-1.23,9.466c-2.183.205-1.652,3.142-.619,5.623a11.774,11.774,0,0,0,1.879,3.244,3.024,3.024,0,0,0,1.614.938c2.028,4.442,4.874,8.535,9.3,10.482a7.762,7.762,0,0,0,2.6.649V33.144C382.4,32.974,377.018,35.326,374.462,40.9Z" transform="translate(-355.013 -29.714)"/><path class="e" d="M403.885,49.362c-.216-5.69-2.489-11.251-7.5-14.1a14.177,14.177,0,0,0-2.788-1.206,20,20,0,0,0-5.357-.908V71.3c5.715.4,11-5.817,13.63-11.563a8.413,8.413,0,0,0,4.341-6.783C406.29,51.621,405.341,49.486,403.885,49.362Z" transform="translate(-355.25 -29.714)"/><path class="f" d="M394.633,101.334c3-9.563,5.527-18.806,5.621-22.615-14.412,9.417-21.392.9-21.392.9L373.9,101.09s.012.1.031.243Z" transform="translate(-355.044 -30.37)"/><path class="g" d="M422.528,84.423a6.209,6.209,0,0,0-2.849-4.031,4.9,4.9,0,0,0-.483-.428,12.232,12.232,0,0,0-4.262-1.708c-7.743-2.1-15.444-3.324-15.444-3.324.1,3.533,1.285,7.281-1.543,14.123a40.237,40.237,0,0,1-7.91,12.225H424.8C424.563,97.742,422.918,86.323,422.528,84.423Z" transform="translate(-355.276 -30.315)"/><path class="g" d="M357.039,84.422a6.209,6.209,0,0,1,2.849-4.031,4.9,4.9,0,0,1,.482-.428,12.243,12.243,0,0,1,4.263-1.708c7.742-2.1,14.768-3.444,14.768-3.444a35.876,35.876,0,0,0,10.129,26.467H354.769C355,97.74,356.648,86.321,357.039,84.422Z" transform="translate(-354.769 -30.314)"/><path class="h" d="M399.928,101.27c3.383-4.358,6.745-8.391,10.023-12.077l-4.478-2.928,4.478-5.592-3.713-4.919-7.153-1.473a43.837,43.837,0,0,1-2.327,14.054,47.914,47.914,0,0,1-6.832,12.936Z" transform="translate(-355.275 -30.306)"/><path class="h" d="M379.632,101.278c-3.382-4.358-6.745-8.391-10.023-12.077l4.478-2.928-4.478-5.592,3.205-3.97,6.8-1.9a58.771,58.771,0,0,0,10.02,26.467Z" transform="translate(-354.982 -30.314)"/><path class="i" d="M373.066,50.222a27.892,27.892,0,0,0,1.18,5c-1.454-4.33,1.2-11.361,3.933-14.754,10.684,7.3,21.948,10.522,23.882,13.605.367-1.023.686-2.081,1.1-3.083.116-.276.251-1.228.547-1.372.094-.045.925-.118.861.031.25-4.78.281-10.02-2.89-13.835a16.846,16.846,0,0,0-13-6.152C377.558,29.882,371.661,40.182,373.066,50.222Z" transform="translate(-355.029 -29.664)"/><path class="i" d="M407.075,72.541a18.665,18.665,0,0,1-6.659,14.528c1.867-2.777,1.759-6.45.918-9.681s-2.34-6.276-3.076-9.539c-.1-.452-.188-.913-.249-1.385a28.213,28.213,0,0,0,3.95-6.233A18.664,18.664,0,0,1,407.075,72.541Z" transform="translate(-355.391 -30.104)"/></g></g></svg>