<svg xmlns="http://www.w3.org/2000/svg" width="24" height="24" viewBox="0 0 24 24"><defs><style>.a{fill:none;}.b{fill:#b7b7bb;}</style></defs><path class="a" d="M0,0H24V24H0Z"/><path class="b" d="M19.5,3.5,18,2,16.5,3.5,15,2,13.5,3.5,12,2,10.5,3.5,9,2,7.5,3.5,6,2V16H3v3a3,3,0,0,0,3,3H18a3,3,0,0,0,3-3V2ZM19,19a1,1,0,0,1-2,0V16H8V5H19Z"/><rect class="b" width="6" height="2" transform="translate(9 7)"/><rect class="b" width="2" height="2" transform="translate(16 7)"/><rect class="b" width="6" height="2" transform="translate(9 10)"/><rect class="b" width="2" height="2" transform="translate(16 10)"/></svg>