<svg xmlns="http://www.w3.org/2000/svg" width="35.18" height="28.627" viewBox="0 0 35.18 28.627"><defs><style>.a{fill:#64c8da;}</style></defs><g transform="translate(0)"><path class="a" d="M33.134,252.851l-5.409-3.123a1.642,1.642,0,0,0-2.462,1.421v1.9H10.38a7.934,7.934,0,0,1-7.925-7.925,1.227,1.227,0,1,0-2.454,0,10.391,10.391,0,0,0,10.38,10.38H25.263v1.9a1.642,1.642,0,0,0,2.462,1.421l5.409-3.123A1.642,1.642,0,0,0,33.134,252.851Z" transform="translate(-0.001 -230.411)"/><path class="a" d="M41.449,51.225H26.566v-1.9A1.642,1.642,0,0,0,24.1,47.908L18.7,51.031a1.642,1.642,0,0,0,0,2.843L24.1,57a1.642,1.642,0,0,0,2.462-1.421v-1.9H41.449A7.934,7.934,0,0,1,49.374,61.6a1.227,1.227,0,1,0,2.454,0A10.391,10.391,0,0,0,41.449,51.225Z" transform="translate(-16.648 -47.686)"/></g></svg>