<svg xmlns="http://www.w3.org/2000/svg" width="21" height="21" viewBox="0 0 21 21"><defs><style>.a,.b{fill:#2d56b2;}.b{stroke:#2d56b2;stroke-linecap:round;}</style></defs><path class="a" d="M18.293,1.641H16.406V.656a.656.656,0,0,0-1.312,0v.984H5.906V.656a.656.656,0,0,0-1.312,0v.984H2.707A2.71,2.71,0,0,0,0,4.348V18.293A2.71,2.71,0,0,0,2.707,21H18.293A2.71,2.71,0,0,0,21,18.293V4.348A2.71,2.71,0,0,0,18.293,1.641ZM2.707,2.953H4.594v.656a.656.656,0,0,0,1.313,0V2.953h9.188v.656a.656.656,0,0,0,1.313,0V2.953h1.887a1.4,1.4,0,0,1,1.395,1.395V5.906H1.313V4.348A1.4,1.4,0,0,1,2.707,2.953ZM18.293,19.688H2.707a1.4,1.4,0,0,1-1.395-1.395V7.219H19.688V18.293A1.4,1.4,0,0,1,18.293,19.688Z"/><path class="b" d="M1536,17822v5.4" transform="translate(-17814.199 1546.699) rotate(-90)"/><path class="b" d="M1536,17822v5.4" transform="translate(-17814.199 1550.402) rotate(-90)"/></svg>