<svg xmlns="http://www.w3.org/2000/svg" width="34" height="34" viewBox="0 0 34 34"><defs><style>.a{fill:#64c8da;}</style></defs><path class="a" d="M34,21.051V2.988A2.992,2.992,0,0,0,31.012,0H2.988A2.992,2.992,0,0,0,0,2.988V33a1,1,0,0,0,1,1H34V32.008a5.855,5.855,0,0,0-1.83-4.239,6.256,6.256,0,0,0-1.332-.981,3.9,3.9,0,0,0,1.17-2.749c0-.057,0-.113,0-.17A2.993,2.993,0,0,0,34,21.051ZM3.984,32.008a3.984,3.984,0,0,1,7.969,0Zm1.992-7.969a1.992,1.992,0,1,1,1.992,1.992A1.994,1.994,0,0,1,5.977,24.039Zm6.973,4.669a6.021,6.021,0,0,0-2.091-1.93,3.984,3.984,0,1,0-5.779,0,5.981,5.981,0,0,0-3.087,5.23V19.059a4.986,4.986,0,0,1,4.98-4.98h12.39a1,1,0,0,0,.966-.755l1.615-6.459a1,1,0,1,1,1.933.483l-1.992,7.968a1,1,0,0,1-.967.755H14.941a1,1,0,0,0-1,1c0,6.624-.017,6.225.039,6.421a3.966,3.966,0,0,0,1.056,3.291A6.021,6.021,0,0,0,12.949,28.708ZM5.977,9.1a2.988,2.988,0,1,1,2.988,2.988A2.992,2.992,0,0,1,5.977,9.1Zm7.969,22.91a3.984,3.984,0,1,1,7.969,0Zm1.992-7.969a1.992,1.992,0,1,1,1.992,1.992A1.994,1.994,0,0,1,15.938,24.039Zm6.973,4.669a6.021,6.021,0,0,0-2.091-1.93,3.969,3.969,0,0,0,1.095-2.739h1.992A3.969,3.969,0,0,0,25,26.778,6.021,6.021,0,0,0,22.91,28.708Zm9.1,3.3h-8.1a3.989,3.989,0,0,1,3.984-3.984A4.107,4.107,0,0,1,32.008,32.008ZM25.9,24.039a1.994,1.994,0,0,1,1.992-1.992,2.116,2.116,0,0,1,2.125,1.992,2.116,2.116,0,0,1-2.125,1.992A1.994,1.994,0,0,1,25.9,24.039Zm6.109-2.988a1,1,0,0,1-.619.921,4.19,4.19,0,0,0-3.5-1.917,3.986,3.986,0,0,0-3.448,1.992H21.378a3.977,3.977,0,0,0-5.441-1.456V18.063h4.98a2.984,2.984,0,0,0,2.9-2.264L25.81,7.83a2.988,2.988,0,0,0-5.8-1.45l-1.426,5.705H12.946a4.981,4.981,0,1,0-7.773.236,6.976,6.976,0,0,0-3.181,1.862V2.988a1,1,0,0,1,1-1H31.012a1,1,0,0,1,1,1Z"/></svg>